<svg width="231" height="57" viewBox="0 0 231 57" fill="none" xmlns="http://www.w3.org/2000/svg">
<path fill-rule="evenodd" clip-rule="evenodd" d="M10.9383 31.645C10.9383 31.645 10.9846 30.8339 10.2894 30.0459C9.571 29.2348 7.18405 29.2348 6.16438 28.9336C5.14471 28.6323 5.0752 27.8676 5.0752 27.8676V24.7622C5.0752 24.7622 5.12154 25.5038 6.16438 25.8282C7.18405 26.1295 9.571 26.1295 10.2894 26.9406C10.9846 27.7285 10.9383 28.5396 10.9383 28.5396V31.645Z" fill="#D3AF4A"/>
<path fill-rule="evenodd" clip-rule="evenodd" d="M10.9383 39.1069C10.9383 39.1069 10.9846 38.2958 10.2894 37.5079C9.571 36.6968 7.18405 36.6968 6.16438 36.3955C5.14471 36.0942 5.0752 35.3295 5.0752 35.3295V32.2241C5.0752 32.2241 5.12154 32.9657 6.16438 33.2901C7.18405 33.5914 9.571 33.5914 10.2894 34.4025C10.9846 35.1904 10.9383 36.0015 10.9383 36.0015V39.1069Z" fill="#D3AF4A"/>
<path fill-rule="evenodd" clip-rule="evenodd" d="M7.97182 3.51142C7.83278 3.60412 7.67056 3.88221 7.53151 4.06761C7.39247 4.253 7.20707 4.39204 7.32294 4.62379C7.46198 4.90188 7.8096 5.6898 7.97182 5.89837C8.13404 5.71298 8.48165 4.92505 8.6207 4.62379C8.73657 4.36887 8.528 4.20665 8.38896 4.02126C8.27308 3.88221 8.11087 3.60412 7.97182 3.51142ZM10.5673 6.82534L11.5175 4.8787L10.5442 5.11045L10.5673 6.82534ZM5.469 6.80217V5.08727L4.49568 4.8787L5.469 6.80217ZM8.01817 1.07812C8.36578 1.93557 8.89879 3.07111 9.64036 3.90539C10.1965 4.53109 9.94163 4.36887 9.52449 5.29584C9.31593 5.75933 9.01466 6.4082 9.06101 6.96439C9.75624 6.89486 9.91846 5.52758 10.0112 4.92505C10.0807 4.55426 10.127 4.46157 10.4746 4.3457C11.726 3.95173 11.6797 4.29935 12.8848 3.09429C13.047 2.93207 13.0933 2.88572 13.2092 2.97841C13.3483 3.21016 12.8152 3.99808 12.6762 4.29935C12.0041 5.6898 11.2162 7.01074 10.9845 8.56341H5.16774C4.93599 7.05708 4.1249 5.66663 3.47602 4.32252C3.38332 4.1603 2.52587 2.8162 3.05888 2.95524L4.0322 3.81269C4.88965 4.46157 5.93249 3.95173 6.09471 4.85553C6.21058 5.48123 6.32645 6.87169 7.04485 6.94121C7.0912 6.38503 6.78994 5.75933 6.58137 5.29584C6.4655 5.04092 6.34962 4.83236 6.23375 4.62379C6.00201 4.253 6.23375 4.11395 6.41914 3.90539C7.11437 3.11746 7.64738 1.84288 8.01817 1.07812Z" fill="#D3AF4A"/>
<path d="M51.2844 1.72659C51.2844 1.84246 51.1686 2.09738 50.9368 2.49134C50.7051 2.88531 50.3807 3.48784 50.0099 4.27576C49.8245 4.66972 49.6391 5.08686 49.4305 5.48082C49.2219 5.87479 49.0134 6.3151 48.828 6.70906C48.6194 7.12619 48.434 7.52016 48.2718 7.89095C48.1096 8.26173 47.9474 8.63252 47.8083 8.95696C47.6461 9.35093 47.4839 9.79123 47.2753 10.3011C47.0667 10.8109 46.8813 11.3207 46.7191 11.8306C46.5337 12.3404 46.3947 12.8039 46.2788 13.221C46.1629 13.6382 46.0934 13.9394 46.0934 14.148C46.0934 14.3334 46.1398 14.4493 46.2325 14.4956C46.3252 14.5188 46.441 14.542 46.5337 14.542C46.6496 14.542 46.7886 14.5188 46.9277 14.4493C47.0667 14.3797 47.2058 14.3334 47.3217 14.2639C47.4607 14.1712 47.5997 14.0785 47.7388 13.9858L47.9242 14.4261C47.762 14.5651 47.5302 14.7505 47.2753 14.9591C46.9972 15.1677 46.7191 15.3994 46.3947 15.608C46.0702 15.8165 45.7458 16.0019 45.3982 16.141C45.0506 16.28 44.7261 16.3727 44.448 16.3727C44.2858 16.3727 44.1468 16.3496 44.0309 16.28C43.915 16.2105 43.8687 16.0946 43.8687 15.8861C43.8687 15.747 43.915 15.4921 44.0309 15.075C44.1468 14.681 44.3322 14.1248 44.5871 13.4296C44.7957 12.8271 45.0506 12.1782 45.3287 11.483C45.6068 10.7877 45.8848 10.1157 46.1861 9.44362C46.4642 8.77157 46.7423 8.14586 46.974 7.56651C47.229 6.98715 47.4143 6.50049 47.5997 6.10653L47.4607 6.06018C47.1363 6.38462 46.835 6.73223 46.5337 7.05667C46.2325 7.40429 45.8617 7.79825 45.4445 8.26173C45.0274 8.72522 44.4944 9.2814 43.8687 9.93028C43.243 10.5792 42.4551 11.3671 41.5049 12.3172C41.0878 12.7344 40.717 13.1052 40.3925 13.4296C40.0681 13.754 39.7437 14.0785 39.4192 14.3797C39.0948 14.681 38.7935 14.9591 38.4691 15.2372C38.1446 15.5153 37.797 15.7934 37.4031 16.0715C37.264 16.1873 37.0555 16.3032 36.7774 16.4191C36.4993 16.5349 36.2444 16.6045 35.9663 16.6045C35.7577 16.6045 35.5955 16.5349 35.526 16.4191C35.4333 16.3032 35.4101 16.1178 35.4101 15.8629C35.4101 15.6543 35.4796 15.3299 35.6187 14.8896C35.7577 14.4493 35.9199 13.9394 36.1285 13.4064C36.337 12.8502 36.5456 12.2941 36.8005 11.7147C37.0323 11.1353 37.264 10.6023 37.4494 10.162C38.0983 8.6557 38.7008 7.24207 39.257 5.96748C39.8132 4.66972 40.4389 3.37196 41.0878 2.07421H40.9951C40.7865 2.28277 40.4389 2.67674 39.9522 3.23292C39.4656 3.81228 38.863 4.46116 38.2142 5.24908C37.5421 6.01383 36.8237 6.8481 36.0358 7.72873C35.2479 8.60935 34.4831 9.4668 33.7184 10.2779C33.3012 10.7182 32.8609 11.2049 32.3743 11.7147C31.8876 12.2245 31.4009 12.7344 30.8679 13.2674C30.3581 13.7772 29.8251 14.287 29.2921 14.7737C28.7591 15.2604 28.2261 15.7007 27.7394 16.0715C27.2296 16.4422 26.7429 16.7435 26.2794 16.9753C25.8159 17.207 25.3988 17.3229 25.028 17.3229C24.5645 17.3229 24.3096 17.0911 24.3096 16.6276C24.3096 16.2105 24.4487 15.7934 24.7499 15.3994C25.0512 14.9823 25.3988 14.6347 25.8159 14.3797H26.0709C26.0477 14.4493 26.0477 14.5188 26.0477 14.5651C26.0477 14.6115 26.0477 14.681 26.0477 14.7274C26.0477 14.7969 26.0477 14.8664 26.0709 14.9591C26.094 15.0518 26.1172 15.1213 26.1635 15.214C26.2099 15.3067 26.3026 15.3762 26.3953 15.4226C26.488 15.4689 26.627 15.5153 26.7893 15.5153C26.9051 15.5153 27.021 15.4921 27.1832 15.4458C27.3454 15.3994 27.5308 15.3067 27.7394 15.1677C27.9712 15.0286 28.2261 14.8432 28.5273 14.6115C28.8286 14.3797 29.1762 14.0553 29.5702 13.6845C30.5898 12.688 31.54 11.7379 32.4669 10.8109C33.3939 9.88393 34.2745 8.93379 35.132 8.00682C35.9894 7.05667 36.8237 6.10653 37.658 5.13321C38.4923 4.15989 39.3034 3.14022 40.1376 2.07421C39.79 2.00468 39.4656 1.95833 39.1411 1.93516C38.8167 1.91199 38.3996 1.88881 37.8665 1.88881C37.4031 1.88881 36.7542 1.91199 35.9894 1.93516C35.2015 1.95833 34.3209 2.09738 33.3476 2.30595C32.3742 2.51452 31.2851 2.83896 30.1264 3.27927C28.9676 3.71958 27.7857 4.34528 26.5575 5.15638C26.094 5.48082 25.6769 5.80526 25.2829 6.1297C24.889 6.47732 24.5645 6.80176 24.2864 7.1262C24.0083 7.45064 23.7998 7.77507 23.6376 8.07634C23.4753 8.37761 23.4058 8.6557 23.4058 8.91061C23.4058 9.09601 23.4522 9.21188 23.568 9.30458C23.6839 9.39727 23.823 9.42045 23.9852 9.42045C24.1706 9.42045 24.3328 9.39727 24.495 9.35092C24.6572 9.30458 24.8194 9.23505 25.028 9.14236V9.42045C24.7499 9.76806 24.4023 10.023 23.9388 10.1852C23.4985 10.3474 23.0814 10.4401 22.6874 10.4401C22.0385 10.4401 21.6909 10.162 21.6909 9.60584C21.6909 9.14236 21.8763 8.67887 22.2239 8.16904C22.5947 7.6592 23.035 7.17254 23.568 6.70906C24.101 6.24557 24.6804 5.78209 25.2829 5.38813C25.8855 4.97099 26.4416 4.62338 26.9283 4.34528C28.2029 3.62688 29.4543 3.04753 30.7289 2.63039C31.9803 2.21325 33.1622 1.88881 34.2514 1.68024C35.3406 1.47168 36.2907 1.33263 37.125 1.26311C37.9593 1.21676 38.585 1.17041 39.0021 1.17041C39.6741 1.17041 40.2535 1.19358 40.7402 1.21676C41.2268 1.23993 41.644 1.28628 41.9916 1.30946C42.3855 1.3558 42.7332 1.40215 43.0344 1.42533C42.9185 1.58755 42.7795 1.86564 42.5709 2.2596C42.3624 2.65356 42.1538 3.0707 41.922 3.55736C41.6903 4.04402 41.4354 4.57703 41.1805 5.13321C40.9256 5.68939 40.6938 6.2224 40.4621 6.75541C40.0449 7.70555 39.6742 8.58617 39.3265 9.42045C38.9789 10.2547 38.6777 10.9963 38.4227 11.6452C38.1678 12.2941 37.9824 12.8734 37.8202 13.3369C37.6812 13.8004 37.6116 14.148 37.6116 14.3566C37.6116 14.4261 37.6116 14.4724 37.6348 14.542C37.658 14.5883 37.7043 14.6115 37.8202 14.6115C37.9593 14.6115 38.2837 14.4029 38.8167 13.9858C39.3497 13.5686 40.0449 12.9198 40.9487 12.0391C41.111 11.8769 41.3659 11.5988 41.7598 11.2049C42.1306 10.8109 42.5941 10.3474 43.1039 9.81441C43.6138 9.2814 44.1931 8.67887 44.7957 8.00682C45.3982 7.35794 46.0007 6.66271 46.6264 5.96748C47.2058 5.3186 47.6693 4.71607 47.9705 4.20624C48.295 3.6964 48.5731 3.25609 48.8512 2.90848C49.1061 2.56087 49.3146 2.32912 49.5 2.19008C49.6622 2.05103 49.8708 1.95834 50.1257 1.86564C50.288 1.81929 50.4502 1.77294 50.6587 1.77294C50.8673 1.74977 50.9832 1.74977 51.0527 1.74977C51.2149 1.5412 51.2844 1.61072 51.2844 1.72659Z" fill="#D3AF4A"/>
<path d="M76.6605 1.26333C76.6605 1.4719 76.4751 1.79634 76.1043 2.1903C75.7335 2.58426 75.0847 3.09409 74.1345 3.74297C73.3002 4.29916 72.605 4.76264 72.0257 5.13343C71.4463 5.50422 70.9133 5.82866 70.473 6.10675C70.0095 6.38484 69.5924 6.66293 69.1984 6.89467C68.8044 7.12642 68.3873 7.42768 67.9702 7.72895C68.1324 8.05339 68.341 8.4937 68.5495 9.1194C68.7581 9.72193 68.9667 10.3708 69.1984 11.066C69.3606 11.5527 69.4997 12.0625 69.6619 12.5492C69.8241 13.0359 69.9863 13.4762 70.1717 13.8701C70.3571 14.2641 70.5425 14.5654 70.7742 14.7971C70.9828 15.0288 71.2377 15.1679 71.5158 15.1679C71.7707 15.1679 72.0257 15.1215 72.2806 15.0057C72.5587 14.913 72.7904 14.7507 72.999 14.5885L73.1844 14.8203C73.138 14.8898 73.0222 15.0057 72.8136 15.1911C72.605 15.3765 72.3733 15.5618 72.1184 15.7472C71.8403 15.9326 71.5622 16.118 71.2609 16.2571C70.9597 16.4193 70.6816 16.4888 70.4035 16.4888C70.0559 16.4888 69.7778 16.3961 69.5692 16.1876C69.3375 15.979 69.1521 15.7009 68.9667 15.3533C68.7813 15.0057 68.619 14.5885 68.4568 14.1019C68.2946 13.6384 68.1324 13.1054 67.9238 12.5724C67.8311 12.3175 67.7153 11.993 67.5994 11.5759C67.4835 11.1587 67.3445 10.7416 67.2054 10.3013C67.0664 9.86098 66.9273 9.46702 66.7651 9.1194C66.6029 8.77179 66.4638 8.51687 66.3248 8.37783C66.0004 9.1194 65.6991 9.8378 65.3747 10.533C65.1197 11.1356 64.8416 11.7613 64.5172 12.4333C64.2159 13.1054 63.9378 13.6847 63.7061 14.1714C63.5902 14.4495 63.4744 14.6812 63.3817 14.8666C63.289 15.052 63.1963 15.2142 63.1036 15.3301C63.0109 15.4692 62.9182 15.5618 62.8487 15.6545C62.756 15.7472 62.6633 15.8168 62.5706 15.8863C62.362 16.0253 62.1303 16.1412 61.8522 16.2107C61.5741 16.3034 61.3655 16.3266 61.2033 16.3266C61.0874 16.3266 60.9947 16.3034 60.9715 16.2571C60.9484 16.2107 60.9252 16.1644 60.9252 16.0949C60.9252 16.0253 60.9715 15.8863 61.0874 15.6777C61.2033 15.4692 61.3655 15.1447 61.5972 14.7044C62.0144 13.9396 62.362 13.2444 62.6633 12.6651C62.9645 12.0625 63.2194 11.5064 63.4744 10.9502C63.7293 10.394 63.9842 9.8378 64.2159 9.28162C64.4709 8.72544 64.7489 8.07656 65.0734 7.33499C65.3283 6.7788 65.56 6.19945 65.8381 5.57374C66.0931 4.97121 66.3248 4.41503 66.5565 3.90519C66.7651 3.39536 66.9505 2.95505 67.0896 2.56109C67.2286 2.1903 67.3213 1.93538 67.3676 1.81951C67.1823 1.79634 66.9968 1.79634 66.8346 1.77316C66.6724 1.74999 66.5102 1.74999 66.348 1.72681C66.1858 1.70364 66.0235 1.70364 65.8845 1.70364C65.3051 1.70364 64.6331 1.72681 63.8452 1.77316C63.0572 1.81951 62.1998 1.93538 61.2496 2.14395C60.2995 2.35252 59.2566 2.67696 58.1443 3.11727C57.0319 3.55758 55.8732 4.16011 54.6681 4.94804C54.2047 5.27248 53.7644 5.59691 53.3704 5.92135C52.9764 6.26897 52.652 6.59341 52.3739 6.91785C52.0958 7.24229 51.8872 7.56673 51.7482 7.86799C51.6091 8.16926 51.5396 8.44735 51.5396 8.70227C51.5396 8.81814 51.586 8.93401 51.6555 9.04988C51.725 9.16575 51.8872 9.23527 52.1422 9.23527C52.3507 9.23527 52.5129 9.2121 52.652 9.16575C52.791 9.1194 52.9764 9.04988 53.185 8.95718V9.23527C52.8374 9.58289 52.4202 9.83781 51.9799 10C51.5396 10.1622 51.1457 10.2549 50.8444 10.2549C50.1955 10.2549 49.8479 9.97685 49.8479 9.42067C49.8479 9.00353 50.0333 8.56322 50.3809 8.05339C50.7517 7.54355 51.192 7.05689 51.725 6.57023C52.258 6.08357 52.8374 5.64326 53.4399 5.20295C54.0424 4.76264 54.5986 4.41503 55.0853 4.13694C56.3599 3.41853 57.6113 2.86235 58.7932 2.42204C59.9751 2.0049 61.1106 1.68046 62.1998 1.4719C63.289 1.26333 64.3086 1.12428 65.282 1.05476C66.2553 0.985237 67.1591 0.962063 67.9702 0.962063C68.2483 0.962063 68.5495 0.985237 68.874 1.03159C69.1984 1.07793 69.4301 1.10111 69.6155 1.12428L66.4638 8.05339C67.02 7.65942 67.5299 7.33498 67.9702 7.03372C68.4105 6.73245 68.8508 6.45436 69.2679 6.17627C69.6851 5.89818 70.1254 5.62009 70.5425 5.31882C70.9596 5.01756 71.4695 4.69312 72.0257 4.29916C72.2806 4.13694 72.5123 3.95154 72.7904 3.74297C73.0453 3.53441 73.2771 3.34901 73.5088 3.14044C73.7174 2.93188 73.9028 2.74648 74.0418 2.53791C74.1809 2.35252 74.2504 2.16712 74.2504 2.0049C74.2504 1.84268 74.1809 1.74999 74.0418 1.70364C73.9028 1.65729 73.7869 1.61094 73.6942 1.61094V1.4719C74.1809 1.24015 74.6675 1.07793 75.1078 0.985238C75.5713 0.89254 75.8958 0.846191 76.1043 0.846191C76.2202 0.846191 76.3593 0.869365 76.4751 0.915714C76.591 0.962063 76.6605 1.07793 76.6605 1.26333Z" fill="#D3AF4A"/>
<path d="M49.3844 20.9382C49.3844 21.1699 49.2917 21.3785 49.1295 21.5639C48.9441 21.7493 48.7587 21.8883 48.5501 22.0042C48.2952 22.1432 48.0403 22.2591 47.7158 22.3286L47.5999 22.2359C47.6231 22.1896 47.6231 22.0969 47.6231 22.0042C47.6231 21.7261 47.4841 21.448 47.1828 21.1699C46.8815 20.915 46.4644 20.6833 45.9082 20.4747C45.352 20.2661 44.6568 20.1039 43.8225 19.988C42.9883 19.8722 42.015 19.8026 40.9258 19.8026C40.8331 19.9185 40.7404 20.0576 40.6709 20.1966C40.6013 20.3356 40.5086 20.4979 40.4391 20.6833C40.3464 20.8687 40.2537 21.0772 40.161 21.3321C40.0451 21.5639 39.9293 21.842 39.7902 22.1664C39.6512 22.4909 39.4426 22.9775 39.1645 23.6496C38.8864 24.3216 38.562 25.1095 38.168 25.9902C37.7973 26.894 37.3801 27.8441 36.9398 28.8869C36.4995 29.9298 36.036 30.9495 35.5957 31.9923C35.3871 32.4558 35.1554 32.8729 34.8773 33.2669C34.6224 33.6608 34.3443 33.9389 34.0662 34.1475C33.9735 34.217 33.8576 34.2865 33.6954 34.3561C33.5332 34.4256 33.3941 34.4951 33.2319 34.5415C33.0697 34.611 32.9307 34.6573 32.7916 34.6805C32.6526 34.7037 32.5367 34.7269 32.4672 34.7269L32.3281 34.5646C32.3513 34.5183 32.4208 34.4024 32.4903 34.2634C32.583 34.1012 32.6757 33.9389 32.7916 33.7304C32.9075 33.5218 33.0233 33.3132 33.1624 33.0815C33.3014 32.8497 33.4173 32.618 33.5332 32.4326C33.8113 31.946 34.1125 31.3666 34.4138 30.6945C34.7382 30.0457 35.0627 29.3273 35.3871 28.5857C35.7347 27.8441 36.0824 27.0562 36.43 26.2451C36.8008 25.434 37.1484 24.6229 37.496 23.835C37.7972 23.1629 38.0753 22.6067 38.2839 22.1664C38.5157 21.7261 38.701 21.3553 38.8864 21.054C39.0718 20.7528 39.2109 20.521 39.3499 20.3356C39.489 20.1503 39.628 19.9649 39.7671 19.8026H39.1877C38.4461 19.8026 37.5887 19.8258 36.6385 19.8953C35.6884 19.9649 34.6455 20.1039 33.5564 20.3125C32.4672 20.521 31.3085 20.8455 30.1266 21.2858C28.9215 21.7029 27.7396 22.2823 26.5114 23.0239C25.5381 23.6032 24.7733 24.2521 24.194 24.9241C23.6378 25.5962 23.3597 26.2219 23.3597 26.7781C23.3597 27.1257 23.5451 27.2879 23.939 27.2879C24.1013 27.2879 24.2635 27.2648 24.4257 27.2184C24.5879 27.1721 24.7733 27.1025 24.9819 26.9867V27.2648C24.6574 27.6124 24.2635 27.8673 23.8 28.0295C23.3365 28.1917 22.9425 28.2844 22.6413 28.2844C22.2705 28.2844 22.0156 28.1917 21.8765 28.0295C21.7375 27.8673 21.668 27.6355 21.668 27.3343C21.668 26.9171 21.8534 26.4768 22.201 25.9902C22.5718 25.5035 23.0121 25.0168 23.5219 24.5534C24.0549 24.0899 24.6111 23.6264 25.2368 23.2324C25.8393 22.8153 26.4187 22.4677 26.9053 22.2128C28.1336 21.5639 29.3618 21.0309 30.6364 20.6369C31.8878 20.2198 33.116 19.8953 34.2748 19.6636C35.4335 19.4318 36.5227 19.2696 37.5191 19.1769C38.5156 19.0842 39.3731 19.0379 40.0451 19.0379H40.3464L41.482 18.2036H41.9454C41.8296 18.3658 41.7369 18.4817 41.6442 18.6208L41.3197 19.0379C42.2931 19.0611 43.2432 19.1074 44.1933 19.2001C45.1435 19.2928 46.0009 19.4087 46.7657 19.5709C47.5304 19.7331 48.1561 19.9417 48.6196 20.1734C49.1526 20.3588 49.3844 20.6369 49.3844 20.9382ZM45.2362 21.8651C45.074 22.1664 44.8886 22.514 44.68 22.9312C44.4714 23.3483 44.2397 23.7654 44.0079 24.2289C43.7762 24.6692 43.5676 25.1327 43.3591 25.573C43.1505 26.0133 42.9883 26.4305 42.8492 26.7781C42.6407 27.3111 42.4321 27.8441 42.2235 28.4003C42.015 28.9565 41.7369 29.6285 41.4124 30.4164C41.2966 30.7177 41.1575 31.0653 40.9953 31.4593C40.8331 31.8533 40.7635 32.1777 40.7635 32.4558C40.7635 32.6412 40.8794 32.7339 41.088 32.7339C41.227 32.7339 41.3661 32.7107 41.5283 32.6412C41.6905 32.5717 41.8296 32.5253 41.9454 32.4558C42.1077 32.3631 42.2467 32.2704 42.3626 32.1777L42.548 32.618C42.3857 32.757 42.154 32.9193 41.8991 33.1278C41.621 33.3364 41.3429 33.5218 41.0416 33.7072C40.7404 33.8926 40.4159 34.0548 40.0915 34.1939C39.7671 34.3329 39.4658 34.4024 39.1645 34.4024C38.8633 34.4024 38.7242 34.217 38.7242 33.8231C38.7242 33.7072 38.7474 33.5218 38.7937 33.2901C38.8401 33.0583 38.9096 32.8034 39.0023 32.5485C39.095 32.2704 39.2109 31.9923 39.3268 31.691C39.4426 31.3898 39.5817 31.0885 39.6975 30.7872C39.7671 30.6018 39.9061 30.2774 40.0683 29.8603C40.2537 29.4431 40.4391 28.9565 40.6709 28.4003C40.9026 27.8441 41.1343 27.2647 41.4124 26.6622C41.6674 26.0597 41.9454 25.4803 42.2235 24.9473C42.5016 24.4143 42.7565 23.9277 43.0114 23.4873C43.2664 23.047 43.4981 22.7458 43.6835 22.5604C43.9848 22.2591 44.2629 22.0737 44.4946 22.0042C44.7263 21.9347 44.8886 21.9115 45.0276 21.9115H45.0971H45.1435H45.2362V21.8651Z" fill="#D3AF4A"/>
<path d="M55.9891 26.4075C55.9891 27.0796 55.8733 27.7516 55.6647 28.4469C55.433 29.1189 55.0853 29.8142 54.5987 30.4862C54.3438 30.8338 54.0193 31.251 53.6022 31.7144C53.2082 32.1779 52.7447 32.6182 52.2349 33.0122C51.7251 33.4062 51.1457 33.7538 50.52 34.0319C49.8943 34.31 49.2454 34.449 48.527 34.449C48.2953 34.449 48.0635 34.449 47.8086 34.4258C47.5537 34.4027 47.3683 34.4027 47.2061 34.3563C47.0439 34.7039 46.8817 35.1442 46.6963 35.6309C46.5109 36.1176 46.2791 36.6969 46.0474 37.3458C45.4912 38.7826 45.1204 39.8254 44.935 40.428C44.9118 40.5902 44.8887 40.7524 44.8655 40.8915C44.8423 41.0537 44.8423 41.1232 44.8423 41.1695C44.7264 41.494 44.4484 41.7721 44.0312 42.027C43.5909 42.3051 43.1969 42.4673 42.8493 42.4673C42.6176 42.4673 42.5017 42.3514 42.5017 42.0965C42.5017 41.9806 42.5481 41.7489 42.6408 41.4476C42.7335 41.1464 42.8957 40.7292 43.1042 40.2194L45.9315 33.7538C45.7693 33.383 45.6766 33.0354 45.6766 32.6878C45.6766 32.5719 45.6766 32.5024 45.6766 32.4329C45.6766 32.3633 45.6998 32.317 45.6998 32.2475L46.3255 32.5024L48.2721 28.1224C48.6661 27.2186 48.8746 26.6393 48.8746 26.3612C48.8746 26.2453 48.8051 26.1758 48.6892 26.1758C48.5734 26.1758 48.388 26.2221 48.0867 26.338C47.7854 26.4539 47.3915 26.6393 46.8585 26.9405L46.7194 26.5466C46.9743 26.4075 47.2988 26.2453 47.6696 26.0599C48.0404 25.8745 48.4343 25.6891 48.8283 25.5037C49.2223 25.3415 49.6162 25.1793 49.9638 25.0634C50.3346 24.9476 50.6127 24.878 50.8213 24.878C51.0067 24.878 51.0994 24.9707 51.0994 25.1561C51.0994 25.2488 50.9835 25.5733 50.7286 26.1294C50.4737 26.7088 50.1492 27.3809 49.7321 28.1688L49.848 28.192C50.1029 27.937 50.3578 27.659 50.6359 27.3577C50.914 27.0564 51.2152 26.7552 51.5397 26.4539C51.8641 26.1526 52.1886 25.8745 52.5593 25.6196C52.907 25.3415 53.2777 25.133 53.6949 24.9476C54.0193 24.7853 54.3669 24.7158 54.7841 24.7158C55.1549 24.7158 55.433 24.8317 55.6647 25.0866C55.8964 25.411 55.9891 25.8282 55.9891 26.4075ZM54.0193 27.2418C54.0193 26.8942 53.973 26.6161 53.9034 26.4539C53.8107 26.2917 53.6717 26.199 53.44 26.199C53.1155 26.199 52.7447 26.338 52.3508 26.6393C51.9336 26.9406 51.5397 27.3113 51.1225 27.7516C50.7054 28.2151 50.2883 28.7018 49.8943 29.258C49.4772 29.8142 49.1295 30.3472 48.8051 30.8802C48.527 31.3205 48.3185 31.7376 48.1331 32.1084C47.9708 32.4792 47.8318 32.8268 47.7159 33.1513C48.2026 33.4525 48.8051 33.6147 49.4772 33.6147C50.0565 33.6147 50.6127 33.4293 51.1225 33.0354C51.5628 32.7109 51.9568 32.3402 52.3276 31.8767C52.6752 31.4132 52.9765 30.9497 53.2314 30.4167C53.4863 29.9069 53.6717 29.3738 53.8108 28.8177C53.9498 28.3078 54.0193 27.7748 54.0193 27.2418Z" fill="#D3AF4A"/>
<path d="M67.0431 25.6425C66.8345 25.8279 66.6491 26.0365 66.4637 26.3145C66.2783 26.5926 66.0929 26.8939 65.9075 27.2415C65.7917 27.4964 65.6526 27.7745 65.4904 28.1221C65.3282 28.4698 65.1428 28.8637 64.9574 29.304C64.7488 29.7443 64.5866 30.1151 64.4707 30.4164C64.3549 30.7177 64.239 30.9726 64.1695 31.158C63.9146 31.7837 63.7987 32.1776 63.7987 32.363C63.7987 32.5716 63.9146 32.6643 64.1463 32.6643C64.4476 32.6643 64.7488 32.5716 65.0964 32.363C65.4441 32.1545 65.7917 31.9459 66.1393 31.7141L66.3247 32.1545C65.9771 32.4094 65.6295 32.6643 65.2818 32.9192C64.9111 33.1741 64.5634 33.429 64.1927 33.6376C63.8219 33.8462 63.4742 34.0316 63.1266 34.1706C62.779 34.3097 62.4778 34.3792 62.1997 34.3792C61.852 34.3792 61.6667 34.217 61.6667 33.8925C61.6667 33.5449 61.852 32.9424 62.1997 32.1313L62.8022 30.7177H62.64C62.0374 31.3665 61.4813 31.9227 60.9946 32.3862C60.508 32.8497 60.0676 33.2437 59.6505 33.5217C59.2334 33.823 58.8626 34.0316 58.515 34.1706C58.1673 34.3097 57.8197 34.3792 57.4489 34.3792C56.6378 34.3792 56.2207 33.8925 56.2207 32.9424C56.2207 32.4789 56.2902 32.0154 56.4524 31.5288C56.6147 31.0653 56.8232 30.6018 57.0782 30.1615C57.3331 29.7212 57.6343 29.304 58.0051 28.8869C58.3527 28.4698 58.7467 28.099 59.1638 27.7282C59.581 27.3574 60.0676 27.0098 60.5543 26.6622C61.0641 26.3145 61.5971 26.0365 62.1533 25.7815C62.7095 25.5266 63.312 25.3181 63.8914 25.179C64.4939 25.0168 65.0965 24.9473 65.699 24.9473C65.9771 24.9473 66.2552 24.9936 66.5564 25.1095C66.8577 25.2022 66.9967 25.3644 66.9967 25.5961V25.6425H67.0431ZM65.4441 25.9901C65.3282 25.8974 65.1428 25.8279 64.9111 25.8047C64.6793 25.7815 64.4476 25.7584 64.2622 25.7584C63.7755 25.7584 63.2889 25.8742 62.779 26.1292C62.2924 26.3841 61.8057 26.6853 61.3654 27.0561C60.9251 27.4269 60.5079 27.8209 60.1372 28.2612C59.7664 28.7015 59.4651 29.1186 59.2334 29.4894C58.9321 30.0456 58.6772 30.5323 58.4918 30.9957C58.3064 31.4592 58.2137 31.8532 58.2137 32.1776C58.2137 32.4557 58.26 32.6643 58.3759 32.7802C58.4918 32.896 58.654 32.9424 58.8857 32.9424C59.2102 32.9424 59.581 32.7802 60.0213 32.4789C60.4384 32.1776 60.8787 31.83 61.2959 31.4129C61.713 30.9957 62.107 30.5786 62.4778 30.1383C62.8485 29.698 63.1035 29.3504 63.2657 29.0723C63.4279 28.8174 63.6133 28.4929 63.8219 28.0758C63.9377 27.8209 64.0536 27.566 64.1695 27.3342C64.2853 27.1025 64.4476 26.8476 64.6561 26.6158C64.9111 26.3609 65.1891 26.1292 65.4441 25.9901Z" fill="#D3AF4A"/>
<path d="M79.789 19.6867C79.789 20.3124 79.395 21.1235 78.5839 22.0968C78.329 22.3981 78.0046 22.7457 77.5874 23.1165C77.1935 23.4873 76.7532 23.8581 76.2665 24.252C75.7798 24.646 75.27 25.04 74.737 25.4107C74.204 25.8047 73.6478 26.1523 73.1148 26.4536V26.5463C73.4856 26.4536 73.8332 26.4072 74.1576 26.3609C74.4821 26.3377 74.7602 26.3145 75.0151 26.3145C75.4322 26.3145 75.803 26.4072 76.1043 26.5926C76.4055 26.778 76.5446 27.1256 76.5446 27.6355C76.5446 27.9831 76.4751 28.3539 76.3128 28.7478C76.1506 29.1418 75.9421 29.5589 75.6871 29.9529C75.4091 30.37 75.1078 30.764 74.7602 31.1811C74.4126 31.5751 74.0418 31.9691 73.6246 32.3398C72.8367 33.0582 72.072 33.5681 71.3304 33.8694C70.5888 34.1706 69.9168 34.3328 69.3374 34.3328C68.9898 34.3328 68.7117 34.2633 68.5031 34.1474C68.2946 34.0316 68.1555 33.8694 68.0628 33.7071C67.9701 33.5449 67.9006 33.3595 67.8774 33.1509C67.8542 32.9424 67.8542 32.7802 67.8542 32.6179C67.8542 32.0154 67.9701 31.3665 68.2019 30.6713C68.4336 29.9761 68.7117 29.2577 69.0361 28.5161C69.3142 27.8904 69.6618 27.2183 70.1022 26.4999C70.5193 25.7815 71.006 25.04 71.539 24.3216C72.072 23.6032 72.6513 22.8847 73.2307 22.2127C73.8332 21.5406 74.4357 20.9381 75.0383 20.4283C75.6408 19.8953 76.2665 19.4781 76.8459 19.1769C77.4484 18.8524 78.0046 18.7134 78.5376 18.7134C78.9315 18.7134 79.2328 18.7829 79.4414 18.9219C79.6963 19.0842 79.789 19.3391 79.789 19.6867ZM77.8655 20.6832C77.8655 20.2661 77.6338 20.0343 77.1935 20.0343C76.7995 20.0343 76.4055 20.1734 76.0116 20.4283C75.5944 20.6832 75.2005 21.0308 74.8065 21.4479C74.4126 21.8651 74.0186 22.3286 73.6478 22.8616C73.277 23.3946 72.9294 23.9044 72.6281 24.4374C72.3037 24.9704 72.0256 25.4803 71.7707 25.9438C71.5158 26.4304 71.3304 26.8244 71.1913 27.1488C71.006 27.5428 70.8205 27.9599 70.6583 28.4002C70.4961 28.8405 70.3339 29.2808 70.218 29.698C70.079 30.1383 69.9863 30.5323 69.8936 30.9262C69.8009 31.3202 69.7777 31.6678 69.7777 31.9691C69.7777 32.3167 69.8472 32.6179 69.9863 32.8729C70.1253 33.1278 70.3802 33.2436 70.7974 33.2436C71.145 33.2436 71.4694 33.1509 71.8402 32.9656C72.1878 32.7802 72.5818 32.5021 73.0221 32.0849C73.5319 31.5983 73.9723 30.9957 74.3199 30.3237C74.6675 29.6285 74.8297 28.9796 74.8297 28.3539C74.8297 28.2148 74.8297 28.0526 74.8065 27.8904C74.7833 27.7282 74.737 27.5659 74.6675 27.4037C74.5748 27.2415 74.4589 27.1256 74.2735 27.0329C74.0881 26.9402 73.8332 26.8939 73.4856 26.8939C73.0916 26.8939 72.7672 26.9402 72.4659 27.0329C72.1647 27.1256 71.9793 27.1952 71.9097 27.2183V26.6622C72.3037 26.4304 72.8367 26.0828 73.5088 25.6425C74.1808 25.2022 74.8529 24.6923 75.5017 24.1362C76.1506 23.58 76.7068 23.0006 77.1935 22.3981C77.6338 21.8187 77.8655 21.2394 77.8655 20.6832Z" fill="#D3AF4A"/>
<path d="M86.5557 26.8012C86.5557 27.6354 86.3703 28.4465 85.9764 29.2345C85.5824 30.0456 85.0958 30.7871 84.5164 31.4824C83.6358 32.502 82.7783 33.2436 81.944 33.7071C81.0866 34.1706 80.206 34.4023 79.3022 34.4023C77.8654 34.4023 77.147 33.6839 77.147 32.2703C77.147 31.7373 77.2397 31.2043 77.4482 30.6249C77.6568 30.0456 77.9117 29.4894 78.2593 28.9564C78.607 28.4234 79.0241 27.8904 79.4876 27.4037C79.9511 26.917 80.4841 26.4767 81.0171 26.1059C81.5733 25.7352 82.1526 25.4339 82.7551 25.2253C83.3577 25.0167 83.9834 24.9009 84.6091 24.9009C85.2348 24.9009 85.7214 25.0631 86.0691 25.4107C86.3703 25.7583 86.5557 26.2218 86.5557 26.8012ZM84.6554 27.5659C84.6554 26.9402 84.5627 26.5231 84.3542 26.2682C84.1456 26.0364 83.8212 25.8974 83.3113 25.8974C82.199 25.8974 81.2256 26.5462 80.3218 27.8672C79.4181 29.1649 78.9777 30.5322 78.9777 31.969C78.9777 32.4325 79.0936 32.7801 79.3022 33.0814C79.5108 33.3595 79.8584 33.4985 80.3682 33.4985C80.7853 33.4985 81.1793 33.3827 81.5501 33.1741C81.9209 32.9655 82.2685 32.6874 82.5929 32.3398C82.9174 31.9922 83.1955 31.5982 83.4504 31.1811C83.7053 30.7408 83.9139 30.3237 84.0992 29.8833C84.2846 29.443 84.4237 29.0259 84.5164 28.6088C84.6091 28.2148 84.6554 27.8672 84.6554 27.5659Z" fill="#D3AF4A"/>
<path d="M99.2089 19.6867C99.2089 20.3124 98.8149 21.1235 98.0039 22.0968C97.7489 22.3981 97.4245 22.7457 97.0074 23.1165C96.6134 23.4873 96.1731 23.8581 95.6864 24.252C95.1998 24.646 94.6899 25.04 94.1569 25.4107C93.6239 25.8047 93.0677 26.1523 92.5347 26.4536V26.5463C92.9055 26.4536 93.2531 26.4072 93.5776 26.3609C93.902 26.3377 94.1801 26.3145 94.435 26.3145C94.8522 26.3145 95.223 26.4072 95.5242 26.5926C95.8255 26.778 95.9645 27.1256 95.9645 27.6355C95.9645 27.9831 95.895 28.3539 95.7328 28.7478C95.5706 29.1418 95.362 29.5589 95.1071 29.9529C94.829 30.37 94.5277 30.764 94.1801 31.1811C93.8325 31.5751 93.4617 31.9691 93.0446 32.3398C92.2566 33.0582 91.4919 33.5681 90.7503 33.8694C90.0087 34.1706 89.3367 34.3328 88.7573 34.3328C88.4097 34.3328 88.1316 34.2633 87.923 34.1474C87.7145 34.0316 87.5754 33.8694 87.4827 33.7071C87.39 33.5449 87.3205 33.3595 87.2974 33.1509C87.2742 32.9424 87.2742 32.7802 87.2742 32.6179C87.2742 32.0154 87.39 31.3665 87.6218 30.6713C87.8535 29.9761 88.1316 29.2577 88.4561 28.5161C88.7342 27.8904 89.0818 27.2183 89.5221 26.4999C89.9392 25.7815 90.4259 25.04 90.9589 24.3216C91.4919 23.6032 92.0712 22.8847 92.6506 22.2127C93.2531 21.5406 93.8557 20.9381 94.4582 20.4283C95.0607 19.8953 95.6864 19.4781 96.2658 19.1769C96.8683 18.8524 97.4245 18.7134 97.9575 18.7134C98.3515 18.7134 98.6527 18.7829 98.8613 18.9219C99.093 19.0842 99.2089 19.3391 99.2089 19.6867ZM97.2623 20.6832C97.2623 20.2661 97.0305 20.0343 96.5902 20.0343C96.1963 20.0343 95.8023 20.1734 95.4083 20.4283C94.9912 20.6832 94.5972 21.0308 94.2033 21.4479C93.8093 21.8651 93.4154 22.3286 93.0446 22.8616C92.6738 23.3946 92.3262 23.9044 92.0249 24.4374C91.7005 24.9704 91.4224 25.4803 91.1674 25.9438C90.9125 26.4304 90.7271 26.8244 90.5881 27.1488C90.4027 27.5428 90.2173 27.9599 90.0551 28.4002C89.8929 28.8405 89.7307 29.2808 89.6148 29.698C89.4757 30.1383 89.383 30.5323 89.2903 30.9262C89.1976 31.3202 89.1745 31.6678 89.1745 31.9691C89.1745 32.3167 89.244 32.6179 89.383 32.8729C89.5221 33.1278 89.777 33.2436 90.1941 33.2436C90.5417 33.2436 90.8662 33.1509 91.237 32.9656C91.5846 32.7802 91.9785 32.5021 92.4189 32.0849C92.9287 31.5983 93.369 30.9957 93.7166 30.3237C94.0642 29.6285 94.2264 28.9796 94.2264 28.3539C94.2264 28.2148 94.2265 28.0526 94.2033 27.8904C94.1801 27.7282 94.1337 27.5659 94.0642 27.4037C93.9715 27.2415 93.8557 27.1256 93.6703 27.0329C93.4849 26.9402 93.23 26.8939 92.8823 26.8939C92.4884 26.8939 92.1639 26.9402 91.8627 27.0329C91.5614 27.1256 91.376 27.1952 91.3065 27.2183V26.6622C91.7005 26.4304 92.2335 26.0828 92.9055 25.6425C93.5776 25.2022 94.2496 24.6923 94.8985 24.1362C95.5474 23.58 96.1036 23.0006 96.5902 22.3981C97.0305 21.8187 97.2623 21.2394 97.2623 20.6832Z" fill="#D3AF4A"/>
<path d="M104.794 29.1649C104.794 29.5126 104.678 29.9297 104.469 30.4395C104.261 30.9494 103.913 31.436 103.45 31.9227C103.287 32.1081 103.079 32.2935 102.824 32.502C102.569 32.7106 102.291 32.9192 102.013 33.1046C101.712 33.3131 101.41 33.4753 101.086 33.6607C100.761 33.8461 100.46 33.9388 100.136 34.0315C99.6491 34.1938 99.232 34.2864 98.9075 34.3096C98.5831 34.3328 98.2818 34.356 97.9574 34.356C97.5634 34.356 97.3085 34.2633 97.1463 34.1011C96.9841 33.9388 96.9146 33.7303 96.9146 33.5449C96.9146 33.3131 96.9609 33.035 97.0768 32.7106C97.1926 32.3862 97.3549 31.969 97.5866 31.4592C97.7025 31.2043 97.8415 30.8798 98.0037 30.4859C98.1891 30.0919 98.3514 29.6748 98.5367 29.2345C98.7221 28.7942 98.9075 28.377 99.0698 27.9831C99.232 27.5891 99.371 27.2647 99.4637 26.9866C99.5101 26.8707 99.5564 26.7548 99.5796 26.6389C99.6259 26.5463 99.6259 26.4536 99.6259 26.3609C99.6259 26.245 99.5564 26.1755 99.4405 26.1755C99.3247 26.1755 99.1624 26.2218 98.9539 26.2913C98.7453 26.384 98.5367 26.4536 98.3513 26.5694C98.0964 26.6853 97.8647 26.8012 97.6098 26.9402L97.4707 26.5462C97.6561 26.4304 97.8879 26.3145 98.1891 26.1523C98.4904 25.9901 98.7917 25.851 99.1161 25.712C99.4405 25.5729 99.7418 25.4339 100.02 25.318C100.298 25.2021 100.53 25.1094 100.692 25.0631C101.016 24.9472 101.294 24.9009 101.526 24.9009C101.596 24.9009 101.665 24.9241 101.712 24.9472C101.758 24.9704 101.781 25.0631 101.781 25.2021C101.781 25.2253 101.758 25.2948 101.712 25.4339C101.665 25.5729 101.596 25.712 101.526 25.8742C101.457 26.0364 101.364 26.2218 101.294 26.4304C101.202 26.6158 101.132 26.8012 101.086 26.9634C100.97 27.1951 100.877 27.45 100.761 27.705C100.646 27.9599 100.507 28.2611 100.368 28.5856C100.831 28.3538 101.318 28.1684 101.804 28.0062C102.291 27.844 102.754 27.7745 103.195 27.7745C103.774 27.7745 104.168 27.8904 104.4 28.0989C104.678 28.3075 104.794 28.6783 104.794 29.1649ZM102.986 29.6748C102.986 29.4662 102.963 29.2808 102.893 29.1418C102.824 29.0027 102.754 28.91 102.662 28.8637C102.569 28.7942 102.453 28.771 102.337 28.7478C102.221 28.7246 102.082 28.7246 101.943 28.7246C101.688 28.7246 101.387 28.771 101.063 28.8868C100.738 29.0027 100.46 29.1186 100.182 29.2576C100.043 29.5821 99.904 29.9065 99.7418 30.2541C99.5796 30.6017 99.4405 30.9262 99.3015 31.2738C99.1624 31.6214 99.0466 31.9227 98.977 32.2008C98.8844 32.4789 98.8612 32.7338 98.8612 32.9192C98.8612 33.1046 98.9075 33.2436 99.0002 33.3363C99.0929 33.429 99.2783 33.4754 99.5564 33.4754C99.9272 33.4754 100.344 33.3827 100.738 33.1741C101.132 32.9655 101.526 32.7106 101.851 32.363C102.198 32.0154 102.453 31.6214 102.685 31.1579C102.87 30.7176 102.986 30.2078 102.986 29.6748ZM109.66 25.1094C109.66 25.2021 109.452 25.6656 109.035 26.4999C108.618 27.3573 108.061 28.6319 107.343 30.37C107.25 30.5786 107.158 30.7871 107.065 30.9957C106.972 31.2043 106.879 31.4128 106.81 31.5982C106.74 31.7836 106.671 31.9458 106.625 32.1081C106.578 32.2703 106.555 32.3862 106.555 32.4789C106.555 32.6179 106.578 32.6874 106.625 32.7338C106.671 32.7569 106.74 32.7801 106.856 32.7801C106.972 32.7801 107.158 32.7338 107.366 32.6179C107.575 32.502 107.783 32.3862 108.015 32.2471C108.27 32.0849 108.502 31.9227 108.78 31.7141L108.965 32.1544C108.803 32.2935 108.548 32.4789 108.224 32.7338C107.899 32.9887 107.552 33.2436 107.158 33.4754C106.787 33.7303 106.393 33.9388 105.999 34.1242C105.605 34.3096 105.257 34.4023 104.979 34.4023C104.771 34.4023 104.655 34.356 104.585 34.2633C104.516 34.1706 104.493 34.0779 104.493 33.9388C104.493 33.7998 104.539 33.6144 104.632 33.3131C104.724 33.0119 104.84 32.6874 105.002 32.2935C105.165 31.8995 105.327 31.5055 105.512 31.0652C105.698 30.6249 105.883 30.2078 106.068 29.7675C106.254 29.3503 106.416 28.9564 106.578 28.5856C106.74 28.2148 106.856 27.9135 106.972 27.6818C107.181 27.1951 107.412 26.7085 107.644 26.2682C107.876 25.8047 108.108 25.5034 108.339 25.3644C108.594 25.2021 108.78 25.1094 108.965 25.0399C109.127 24.9704 109.313 24.9472 109.475 24.9472C109.521 24.9472 109.568 24.9472 109.614 24.9704C109.637 24.9472 109.66 25.0167 109.66 25.1094Z" fill="#D3AF4A"/>
<path d="M118.699 25.6195C118.699 25.8976 118.606 26.1757 118.397 26.477C118.189 26.7782 117.957 27.0563 117.656 27.3344C117.354 27.6125 117.053 27.8674 116.729 28.0991C116.404 28.3309 116.126 28.5395 115.871 28.7017C115.338 29.0493 114.782 29.3737 114.18 29.6518C113.6 29.9299 112.951 30.1617 112.256 30.3239C112.187 30.5093 112.14 30.7178 112.117 30.9032C112.094 31.1118 112.071 31.2277 112.071 31.2972C112.071 32.0156 112.233 32.5254 112.557 32.8499C112.882 33.1743 113.368 33.3134 113.994 33.3134C114.55 33.3134 115.107 33.1743 115.663 32.9194C116.219 32.6413 116.729 32.3864 117.169 32.1083L117.354 32.4096C117.099 32.6181 116.775 32.8499 116.427 33.0816C116.057 33.3134 115.686 33.5219 115.269 33.7305C114.852 33.9391 114.434 34.1013 114.017 34.2172C113.6 34.333 113.16 34.4025 112.743 34.4025C111.955 34.4025 111.329 34.2172 110.866 33.8464C110.402 33.4756 110.17 32.8962 110.17 32.1083C110.17 30.4397 110.912 28.9102 112.418 27.4734C112.743 27.1722 113.114 26.8709 113.531 26.5465C113.948 26.222 114.365 25.9671 114.828 25.7122C115.269 25.4573 115.755 25.2719 116.219 25.1097C116.706 24.9475 117.169 24.8779 117.656 24.8779C118.351 24.9243 118.699 25.156 118.699 25.6195ZM116.752 26.4306C116.752 26.1062 116.543 25.9671 116.149 25.9671C115.848 25.9671 115.524 26.083 115.153 26.2916C114.805 26.5001 114.458 26.8014 114.133 27.1258C113.809 27.4734 113.507 27.8442 113.229 28.2845C112.951 28.7017 112.743 29.142 112.604 29.5591C112.998 29.4896 113.438 29.3506 113.925 29.1652C114.411 28.9566 114.852 28.7249 115.269 28.4236C115.686 28.1455 116.033 27.8211 116.312 27.4734C116.613 27.1258 116.752 26.7782 116.752 26.4306Z" fill="#D3AF4A"/>
<path d="M140.9 25.4342C140.9 25.5964 140.853 25.805 140.784 26.0831C140.714 26.338 140.622 26.6161 140.506 26.9173C140.39 27.2186 140.274 27.5199 140.158 27.8211C140.042 28.1224 139.926 28.3773 139.81 28.6091L139.046 30.324C138.976 30.463 138.907 30.6252 138.814 30.8338C138.721 31.0424 138.629 31.2509 138.559 31.4595C138.466 31.6681 138.397 31.8766 138.35 32.062C138.281 32.2474 138.258 32.3865 138.258 32.4792C138.258 32.6646 138.35 32.7573 138.559 32.7573C138.675 32.7573 138.814 32.7109 138.976 32.6414C139.162 32.5719 139.393 32.4328 139.695 32.2242L140.459 31.6912L140.645 32.1315C139.671 32.9195 138.883 33.4988 138.235 33.8464C137.586 34.2172 137.076 34.4026 136.682 34.4026C136.357 34.4026 136.195 34.2404 136.195 33.9391C136.195 33.8233 136.218 33.661 136.288 33.4525C136.357 33.2439 136.427 33.0122 136.497 32.7804C136.589 32.5487 136.682 32.2938 136.775 32.0388C136.867 31.7839 136.96 31.5754 137.053 31.3668L137.864 29.4202C138.119 28.7945 138.327 28.2614 138.466 27.8675C138.605 27.4735 138.675 27.1954 138.675 27.1027C138.675 26.9173 138.582 26.8246 138.42 26.8246C138.142 26.8246 137.841 26.9173 137.493 27.1259C137.145 27.3345 136.821 27.5894 136.473 27.8907C136.126 28.1919 135.778 28.5395 135.431 28.9335C135.083 29.3275 134.758 29.6982 134.48 30.069C134.179 30.4398 133.947 30.7874 133.716 31.1119C133.507 31.4363 133.345 31.6912 133.252 31.8766L132.812 32.7573C132.742 32.8731 132.719 32.9658 132.696 33.0353C132.673 33.1049 132.626 33.1744 132.58 33.2207L132.163 33.6379C131.908 33.8928 131.676 34.055 131.491 34.1709C131.305 34.2636 131.12 34.3331 130.981 34.3331C130.796 34.3331 130.703 34.2404 130.703 34.055C130.703 33.8928 130.796 33.6379 130.958 33.2671C131.12 32.8963 131.329 32.4792 131.56 31.9925L132.14 30.7874C132.65 29.6519 133.044 28.7481 133.275 28.0761C133.507 27.404 133.623 26.9869 133.623 26.8478C133.623 26.7319 133.577 26.6624 133.461 26.6624C133.206 26.6624 132.905 26.7551 132.557 26.9637C132.209 27.1723 131.839 27.4272 131.468 27.7748C131.074 28.0992 130.703 28.47 130.332 28.8872C129.961 29.2811 129.614 29.6982 129.289 30.0922C128.965 30.4862 128.687 30.8338 128.455 31.1814C128.223 31.5058 128.061 31.7608 127.968 31.9693L127.574 32.8036C127.505 32.9195 127.482 33.0122 127.459 33.0817C127.435 33.1512 127.389 33.2207 127.343 33.2671L126.926 33.6842C126.671 33.9391 126.439 34.1014 126.254 34.2172C126.068 34.3099 125.883 34.3794 125.744 34.3794C125.558 34.3794 125.466 34.2868 125.466 34.1014C125.466 34.0087 125.535 33.8233 125.651 33.5452C125.767 33.2671 125.906 32.9658 126.068 32.6646L127.25 30.1386C127.621 29.3043 127.945 28.5627 128.177 27.8907C128.409 27.2186 128.525 26.7319 128.525 26.4539C128.525 26.2916 128.478 26.2221 128.362 26.2221C128.246 26.2221 128.061 26.2685 127.806 26.3612C127.528 26.4539 127.111 26.6624 126.532 26.9869L126.393 26.5929C126.601 26.477 126.902 26.3148 127.25 26.1294C127.621 25.944 127.992 25.7586 128.386 25.5732C128.78 25.3878 129.173 25.2488 129.544 25.1097C129.938 24.9939 130.239 24.9244 130.518 24.9244C130.703 24.9244 130.796 25.017 130.796 25.2024C130.796 25.272 130.749 25.4574 130.657 25.7586C130.564 26.0599 130.402 26.4539 130.193 26.9637L129.15 29.3043L129.313 29.3506C129.869 28.7481 130.425 28.1687 131.004 27.6357C131.584 27.1027 132.14 26.6392 132.673 26.2221C133.206 25.8281 133.716 25.5037 134.179 25.272C134.643 25.0402 135.06 24.9244 135.407 24.9244C135.593 24.9244 135.709 24.9707 135.778 25.0634C135.848 25.1561 135.871 25.272 135.871 25.4342C135.871 25.8281 135.639 26.5697 135.152 27.7284L134.55 29.1884C135.245 28.5395 135.894 27.8907 136.543 27.3113C137.192 26.7088 137.887 26.1526 138.629 25.6428C139.277 25.1793 139.903 24.9475 140.506 24.9475C140.761 24.9244 140.9 25.0866 140.9 25.4342ZM142.29 19.5016C142.012 20.0809 141.618 20.6139 141.108 21.1238C140.598 21.6336 139.973 22.0044 139.231 22.2825C138.397 22.6069 137.586 22.7923 136.798 22.8387C136.033 22.9082 135.222 22.9314 134.388 22.9314C133.438 22.9314 132.65 22.9314 132.047 22.9545C131.445 22.9777 130.912 23.0241 130.448 23.0936C130.008 23.1631 129.591 23.279 129.243 23.4412C128.895 23.6034 128.501 23.812 128.084 24.0901L127.992 23.812C128.339 23.5339 128.64 23.279 128.942 23.0936C129.243 22.9082 129.521 22.746 129.776 22.6301C130.054 22.5142 130.309 22.3984 130.587 22.3288C130.865 22.2593 131.166 22.1666 131.491 22.0739C131.954 21.958 132.441 21.8653 132.928 21.819C133.414 21.7727 133.901 21.7495 134.388 21.7263C134.874 21.7031 135.384 21.7031 135.894 21.68C136.404 21.6568 136.914 21.6336 137.447 21.5641C138.42 21.4482 139.301 21.2396 140.042 20.9152C140.807 20.5908 141.456 20.0809 141.989 19.3394L142.29 19.5016Z" fill="#D3AF4A"/>
<path d="M150.424 25.6195C150.424 25.8976 150.331 26.1757 150.123 26.477C149.914 26.7782 149.683 27.0563 149.381 27.3344C149.08 27.6125 148.779 27.8674 148.454 28.0991C148.13 28.3309 147.852 28.5395 147.597 28.7017C147.064 29.0493 146.508 29.3737 145.905 29.6518C145.326 29.9299 144.677 30.1617 143.982 30.3239C143.912 30.5093 143.866 30.7178 143.843 30.9032C143.819 31.1118 143.796 31.2277 143.796 31.2972C143.796 32.0156 143.959 32.5254 144.283 32.8499C144.607 33.1743 145.094 33.3134 145.72 33.3134C146.276 33.3134 146.832 33.1743 147.388 32.9194C147.944 32.6413 148.454 32.3864 148.895 32.1083L149.08 32.4096C148.825 32.6181 148.501 32.8499 148.153 33.0816C147.782 33.3134 147.411 33.5219 146.994 33.7305C146.577 33.9391 146.16 34.1013 145.743 34.2172C145.326 34.333 144.885 34.4025 144.468 34.4025C143.68 34.4025 143.055 34.2172 142.591 33.8464C142.128 33.4756 141.896 32.8962 141.896 32.1083C141.896 30.4397 142.638 28.9102 144.144 27.4734C144.468 27.1722 144.839 26.8709 145.256 26.5465C145.673 26.222 146.091 25.9671 146.554 25.7122C146.994 25.4573 147.481 25.2719 147.944 25.1097C148.431 24.9475 148.895 24.8779 149.381 24.8779C150.077 24.9243 150.424 25.156 150.424 25.6195ZM148.477 26.4306C148.477 26.1062 148.269 25.9671 147.875 25.9671C147.574 25.9671 147.249 26.083 146.878 26.2916C146.531 26.5001 146.183 26.8014 145.859 27.1258C145.534 27.4734 145.233 27.8442 144.955 28.2845C144.677 28.7017 144.468 29.142 144.329 29.5591C144.723 29.4896 145.164 29.3506 145.65 29.1652C146.137 28.9566 146.577 28.7249 146.994 28.4236C147.411 28.1455 147.759 27.8211 148.037 27.4734C148.338 27.1258 148.477 26.7782 148.477 26.4306Z" fill="#D3AF4A"/>
<path d="M160.482 24.994C160.482 25.2026 160.319 25.5038 160.018 25.8978C159.717 26.2917 159.323 26.7321 158.859 27.1955C158.419 27.659 157.932 28.1457 157.423 28.6555C156.913 29.1422 156.449 29.6057 156.055 30.0228L156.241 30.9498C156.31 31.2279 156.357 31.4828 156.403 31.6913C156.449 31.8999 156.496 32.0853 156.542 32.2475C156.635 32.5256 156.727 32.711 156.797 32.8501C156.936 33.0355 157.121 33.1282 157.353 33.1282C157.701 33.1282 158.095 32.9659 158.581 32.6183C158.952 32.3634 159.346 32.039 159.786 31.6218L159.949 32.0621C158.465 33.638 157.168 34.4259 156.102 34.4259C155.685 34.4259 155.383 34.032 155.152 33.2209C155.012 32.711 154.85 31.9694 154.665 31.0193C154.479 31.2047 154.294 31.4133 154.086 31.6218C153.877 31.8304 153.645 32.039 153.413 32.2707C152.556 33.0586 151.907 33.6148 151.444 33.9393C150.98 34.2869 150.586 34.4491 150.215 34.4491C150.053 34.4491 149.937 34.3796 149.845 34.2637C149.752 34.1478 149.706 33.9393 149.706 33.638C149.706 33.4526 149.729 33.244 149.798 32.9659C150.215 32.9659 150.887 32.7574 151.768 32.3171C152.788 31.8072 153.715 31.1815 154.526 30.3936L154.086 27.7054C153.993 27.126 153.877 26.7552 153.738 26.593C153.599 26.4308 153.367 26.3613 153.043 26.3613C152.695 26.3613 152.324 26.4308 151.93 26.5698C151.536 26.7089 151.166 26.8711 150.818 27.0101L150.725 26.6162C150.911 26.5003 151.189 26.3613 151.56 26.1759C151.93 25.9905 152.324 25.8051 152.741 25.6197C153.159 25.4343 153.553 25.2953 153.923 25.1562C154.294 25.0172 154.595 24.9708 154.781 24.9708C155.036 24.9708 155.198 25.1099 155.267 25.3648C155.36 25.6197 155.43 26.0832 155.522 26.7321L155.916 29.4203C156.565 28.7946 157.191 28.1457 157.77 27.4505C158.35 26.7552 158.836 25.9441 159.277 25.0635C159.392 25.0172 159.508 24.9708 159.67 24.9013C159.833 24.8318 160.041 24.8086 160.273 24.8086C160.343 24.8086 160.412 24.8318 160.435 24.8549C160.482 24.8086 160.482 24.8781 160.482 24.994Z" fill="#D3AF4A"/>
<path d="M171.536 25.1094C171.466 25.2253 171.397 25.3644 171.327 25.5266C171.234 25.6888 171.165 25.851 171.072 26.0132C170.98 26.1755 170.91 26.3377 170.841 26.4767C170.771 26.6158 170.725 26.7085 170.701 26.778C170.539 27.1256 170.331 27.6123 170.076 28.1916C169.821 28.771 169.52 29.4894 169.149 30.3237C168.94 30.8103 168.755 31.2506 168.593 31.6214C168.43 32.0154 168.361 32.2935 168.361 32.4789C168.361 32.6179 168.384 32.6874 168.43 32.7338C168.477 32.7569 168.546 32.7801 168.662 32.7801C168.778 32.7801 168.963 32.7338 169.172 32.6179C169.381 32.502 169.589 32.3862 169.821 32.2471C170.076 32.0849 170.308 31.9227 170.586 31.7141L170.771 32.1544C170.609 32.2935 170.354 32.4789 170.029 32.7338C169.705 32.9887 169.357 33.2436 168.963 33.4754C168.593 33.7303 168.199 33.9388 167.805 34.1242C167.411 34.3096 167.063 34.4023 166.785 34.4023C166.576 34.4023 166.461 34.356 166.391 34.2633C166.322 34.1706 166.298 34.0779 166.298 33.9388C166.298 33.7998 166.322 33.6607 166.368 33.4522C166.414 33.2436 166.484 33.035 166.576 32.8033C166.669 32.5716 166.762 32.3398 166.855 32.0849C166.947 31.83 167.04 31.5982 167.133 31.3897L167.967 29.4199C167.619 29.5357 167.318 29.6053 167.086 29.6516C166.855 29.6979 166.6 29.7443 166.275 29.7675C165.835 29.837 165.441 29.8833 165.093 29.8833C164.746 29.9065 164.444 29.9065 164.12 29.9529L162.892 32.8728C162.822 33.0814 162.729 33.2436 162.637 33.3363C162.567 33.4058 162.405 33.5449 162.15 33.7303C161.895 33.9157 161.663 34.0779 161.432 34.1938C161.223 34.3096 161.061 34.356 160.899 34.356C160.76 34.356 160.69 34.3328 160.667 34.2864C160.644 34.2401 160.644 34.1706 160.644 34.1011C160.644 34.0315 160.69 33.8693 160.806 33.6144C160.922 33.3595 161.084 33.0119 161.293 32.5947C161.501 32.1312 161.687 31.7373 161.872 31.3897C162.034 31.0652 162.15 30.7871 162.266 30.509C162.382 30.231 162.451 30.0919 162.475 30.0456C162.312 30.0687 162.127 30.0919 161.965 30.1151C161.779 30.1383 161.617 30.1614 161.432 30.1846L161.524 29.8602C161.965 29.6748 162.382 29.5357 162.753 29.443C162.845 29.2345 162.961 28.9564 163.077 28.6551C163.193 28.3538 163.309 28.0526 163.425 27.7513C163.541 27.45 163.61 27.1951 163.68 26.9634C163.749 26.7316 163.772 26.5694 163.772 26.4536C163.772 26.2913 163.703 26.2218 163.564 26.2218C163.448 26.2218 163.286 26.2682 163.077 26.3377C162.869 26.4072 162.683 26.4999 162.475 26.5926C162.243 26.7085 162.011 26.8243 161.733 26.9634L161.594 26.5694C161.849 26.4304 162.15 26.2682 162.544 26.0828C162.938 25.8974 163.309 25.712 163.726 25.5266C164.12 25.3644 164.514 25.2021 164.862 25.0863C165.232 24.9704 165.51 24.9009 165.719 24.9009C165.789 24.9009 165.858 24.9241 165.904 24.9472C165.951 24.9704 165.974 25.0631 165.974 25.179C165.974 25.2253 165.951 25.318 165.928 25.4571C165.881 25.5729 165.835 25.7351 165.788 25.8974C165.719 26.0596 165.649 26.245 165.58 26.4304C165.51 26.6158 165.441 26.8012 165.371 26.9634L164.468 29.0722C164.838 29.0259 165.209 28.9795 165.557 28.9564C165.928 28.9332 166.275 28.91 166.623 28.8637C166.994 28.8405 167.295 28.8173 167.55 28.771C167.805 28.7478 168.013 28.7246 168.222 28.6783L168.871 27.1024C169.033 26.6853 169.195 26.3377 169.357 26.0596C169.52 25.7815 169.705 25.5729 169.937 25.4107C170.192 25.2485 170.423 25.1326 170.678 25.0399C170.933 24.9472 171.119 24.9009 171.304 24.9009C171.35 24.9009 171.397 24.9009 171.443 24.9241C171.489 24.9472 171.536 25.0167 171.536 25.1094Z" fill="#D3AF4A"/>
<path d="M181.547 26.8012C181.547 27.6354 181.362 28.4465 180.968 29.2345C180.574 30.0456 180.087 30.7871 179.508 31.4824C178.627 32.502 177.77 33.2436 176.935 33.7071C176.078 34.1706 175.197 34.4023 174.293 34.4023C172.857 34.4023 172.138 33.6839 172.138 32.2703C172.138 31.7373 172.231 31.2043 172.439 30.6249C172.648 30.0456 172.903 29.4894 173.251 28.9564C173.598 28.4234 174.015 27.8904 174.479 27.4037C174.942 26.917 175.475 26.4767 176.008 26.1059C176.564 25.7352 177.144 25.4339 177.746 25.2253C178.349 25.0167 178.975 24.9009 179.6 24.9009C180.226 24.9009 180.713 25.0631 181.06 25.4107C181.362 25.7583 181.547 26.2218 181.547 26.8012ZM179.67 27.5659C179.67 26.9402 179.577 26.5231 179.369 26.2682C179.16 26.0364 178.836 25.8974 178.326 25.8974C177.213 25.8974 176.24 26.5462 175.336 27.8672C174.432 29.1649 173.992 30.5322 173.992 31.969C173.992 32.4325 174.108 32.7801 174.317 33.0814C174.525 33.3595 174.873 33.4985 175.383 33.4985C175.8 33.4985 176.194 33.3827 176.564 33.1741C176.935 32.9655 177.283 32.6874 177.607 32.3398C177.932 31.9922 178.21 31.5982 178.465 31.1811C178.72 30.7408 178.928 30.3237 179.114 29.8833C179.299 29.443 179.438 29.0259 179.531 28.6088C179.6 28.2148 179.67 27.8672 179.67 27.5659Z" fill="#D3AF4A"/>
<path d="M191.558 25.2024C191.558 25.3415 191.419 25.6427 191.164 26.083C190.91 26.5233 190.631 27.0332 190.353 27.6125C190.214 27.8906 190.029 28.2846 189.797 28.7481C189.565 29.2116 189.334 29.6982 189.102 30.208C188.87 30.6947 188.685 31.1582 188.523 31.5753C188.36 31.9925 188.268 32.2706 188.268 32.4328C188.268 32.6182 188.384 32.7109 188.592 32.7109C188.754 32.7109 188.893 32.6877 189.056 32.6182C189.218 32.5486 189.357 32.5023 189.496 32.4328C189.658 32.3401 189.797 32.2474 189.959 32.1547L190.145 32.595C189.983 32.734 189.751 32.8963 189.473 33.1048C189.195 33.3134 188.893 33.522 188.546 33.7074C188.221 33.9159 187.874 34.0781 187.526 34.2172C187.178 34.3562 186.854 34.4258 186.576 34.4258C186.228 34.4258 186.043 34.2635 186.043 33.9159C186.043 33.7537 186.089 33.522 186.182 33.2207C186.275 32.9194 186.414 32.5718 186.553 32.201C186.715 31.8302 186.877 31.4363 187.063 31.0191C187.248 30.602 187.433 30.208 187.619 29.8373C187.804 29.4665 187.966 29.1189 188.129 28.8176C188.291 28.5163 188.407 28.2846 188.499 28.0992C188.754 27.5662 188.94 27.1722 189.079 26.9173C189.195 26.6392 189.264 26.4538 189.264 26.3611C189.264 26.2684 189.195 26.2452 189.079 26.2452C188.685 26.2452 188.175 26.477 187.503 26.9637C186.831 27.4503 186.089 28.1224 185.278 28.9798C184.699 29.6055 184.189 30.2544 183.749 30.9264C183.308 31.6217 183.1 32.3401 183.1 33.1048C183.1 33.267 183.1 33.3597 183.123 33.4061C182.914 33.6842 182.659 33.9391 182.358 34.1477C182.057 34.3562 181.802 34.4489 181.57 34.4489C181.385 34.4489 181.246 34.4026 181.13 34.3099C181.014 34.2172 180.968 34.055 180.968 33.7769C180.968 33.2902 181.339 32.5486 182.103 31.5058C182.636 30.7874 183.285 30.0227 184.05 29.2347C184.815 28.4468 185.626 27.7052 186.506 26.9868C186.715 26.8246 186.947 26.6624 187.202 26.477C187.48 26.3148 187.735 26.1526 188.013 25.9903C188.291 25.8281 188.546 25.7122 188.801 25.5732C189.056 25.4573 189.264 25.3646 189.45 25.2951C189.704 25.1792 190.029 25.0865 190.4 25.017C190.771 24.9475 191.049 24.9243 191.234 24.9243C191.304 24.9243 191.373 24.9243 191.443 24.9475C191.512 24.9707 191.558 25.0634 191.558 25.2024Z" fill="#D3AF4A"/>
<path d="M201.106 26.8012C201.106 27.6354 200.921 28.4465 200.527 29.2345C200.133 30.0456 199.646 30.7871 199.067 31.4824C198.186 32.502 197.329 33.2436 196.495 33.7071C195.637 34.1706 194.757 34.4023 193.853 34.4023C192.416 34.4023 191.698 33.6839 191.698 32.2703C191.698 31.7373 191.79 31.2043 191.999 30.6249C192.207 30.0456 192.462 29.4894 192.81 28.9564C193.157 28.4234 193.575 27.8904 194.038 27.4037C194.502 26.917 195.035 26.4767 195.568 26.1059C196.124 25.7352 196.703 25.4339 197.306 25.2253C197.908 25.0167 198.534 24.9009 199.16 24.9009C199.785 24.9009 200.272 25.0631 200.62 25.4107C200.921 25.7583 201.106 26.2218 201.106 26.8012ZM199.229 27.5659C199.229 26.9402 199.136 26.5231 198.928 26.2682C198.719 26.0364 198.395 25.8974 197.885 25.8974C196.773 25.8974 195.799 26.5462 194.896 27.8672C193.992 29.1649 193.551 30.5322 193.551 31.969C193.551 32.4325 193.667 32.7801 193.876 33.0814C194.084 33.3595 194.432 33.4985 194.942 33.4985C195.359 33.4985 195.753 33.3827 196.124 33.1741C196.495 32.9655 196.842 32.6874 197.167 32.3398C197.491 31.9922 197.769 31.5982 198.024 31.1811C198.279 30.7408 198.488 30.3237 198.673 29.8833C198.858 29.443 198.997 29.0259 199.09 28.6088C199.16 28.2148 199.229 27.8672 199.229 27.5659Z" fill="#D3AF4A"/>
<path d="M207.688 25.573C207.688 26.0365 207.479 26.5463 207.062 27.1488C206.645 27.7514 206.019 28.5393 205.208 29.5126C204.814 29.9761 204.513 30.3469 204.281 30.6481C204.049 30.9494 203.864 31.2275 203.748 31.4361C203.632 31.6446 203.54 31.83 203.493 31.9922C203.447 32.1545 203.424 32.2703 203.424 32.4094C203.424 32.6179 203.493 32.7802 203.632 32.8497C203.771 32.9192 203.91 32.9656 204.026 32.9656C204.235 32.9656 204.42 32.9424 204.629 32.8729C204.837 32.8033 205.023 32.7106 205.231 32.5948C205.44 32.4789 205.625 32.363 205.787 32.224C205.973 32.0849 206.135 31.9691 206.274 31.8532L206.506 32.1313C206.181 32.4094 205.857 32.7106 205.532 32.9887C205.208 33.2668 204.884 33.5217 204.536 33.7535C204.188 33.9621 203.841 34.1474 203.493 34.2865C203.146 34.4255 202.775 34.4951 202.381 34.4951C202.01 34.4951 201.755 34.4255 201.616 34.2865C201.477 34.1474 201.407 33.962 201.407 33.7303C201.407 33.5449 201.454 33.3363 201.57 33.1046C201.686 32.8729 201.848 32.6179 202.08 32.2935C202.311 31.9691 202.613 31.5983 202.983 31.158C203.354 30.7177 203.794 30.2078 204.304 29.5821C204.629 29.1882 204.884 28.8637 205.069 28.5624C205.254 28.2844 205.417 28.0063 205.509 27.7977C205.602 27.566 205.672 27.3806 205.695 27.1952C205.718 27.0329 205.718 26.8476 205.718 26.6853C205.718 26.4999 205.648 26.3609 205.532 26.2914C205.417 26.2219 205.254 26.1987 205.092 26.1987C204.93 26.1987 204.768 26.245 204.559 26.3145C204.351 26.3841 204.165 26.4768 203.957 26.5926C203.748 26.7085 203.539 26.8476 203.331 26.9866C203.122 27.1488 202.937 27.2879 202.752 27.4501L202.52 27.172C202.821 26.9402 203.122 26.6853 203.47 26.4304C203.818 26.1755 204.165 25.9206 204.559 25.712C204.93 25.5034 205.324 25.3181 205.741 25.1558C206.135 25.0168 206.552 24.9473 206.946 24.9473C207.108 24.9473 207.271 24.9936 207.433 25.0631C207.618 25.1095 207.688 25.2949 207.688 25.573Z" fill="#D3AF4A"/>
<path d="M219.344 25.1095C219.344 25.1327 219.252 25.3413 219.066 25.7121C218.881 26.0829 218.672 26.5463 218.441 27.1025L217.027 30.3933C216.957 30.5555 216.888 30.7177 216.795 30.9263C216.703 31.1348 216.61 31.3202 216.54 31.5288C216.471 31.7374 216.401 31.9228 216.332 32.085C216.262 32.2704 216.239 32.4094 216.239 32.5021C216.239 32.6875 216.332 32.7802 216.54 32.7802C216.656 32.7802 216.842 32.7107 217.143 32.5485C217.444 32.3863 217.884 32.1082 218.441 31.7142L218.626 32.1545C217.653 32.9424 216.865 33.5218 216.216 33.8694C215.567 34.2402 215.057 34.4256 214.663 34.4256C214.339 34.4256 214.177 34.2634 214.177 33.9621C214.177 33.7999 214.2 33.6145 214.246 33.4059C214.292 33.1974 214.362 32.9888 214.455 32.757C214.547 32.5253 214.64 32.2936 214.733 32.0618C214.825 31.8301 214.918 31.5983 215.011 31.3898C215.289 30.7641 215.521 30.2542 215.706 29.8371C215.891 29.42 216.054 29.0723 216.17 28.8174C216.285 28.5393 216.401 28.3308 216.471 28.1685C216.54 28.0063 216.61 27.8441 216.679 27.7282H216.471L215.845 28.4003C215.405 28.8869 214.918 29.3968 214.408 29.953C213.898 30.5091 213.365 31.0422 212.856 31.552C212.346 32.085 211.813 32.5485 211.326 33.012C210.816 33.4523 210.353 33.8231 209.959 34.1243C209.843 34.217 209.704 34.2865 209.542 34.3329C209.379 34.3792 209.217 34.4256 209.078 34.4256C208.916 34.4256 208.777 34.3792 208.707 34.2865C208.615 34.1939 208.592 34.078 208.592 33.9389C208.592 33.8231 208.615 33.6608 208.661 33.4523C208.707 33.2437 208.8 32.9888 208.916 32.7107C209.194 32.0618 209.472 31.3898 209.797 30.6945C210.098 29.9993 210.376 29.3736 210.631 28.7942C210.886 28.2149 211.094 27.7051 211.257 27.2879C211.419 26.8708 211.488 26.5695 211.488 26.4536C211.488 26.3378 211.419 26.2683 211.303 26.2683C211.094 26.2683 210.747 26.3841 210.214 26.639L209.449 27.033L209.31 26.639C209.565 26.4768 209.866 26.3146 210.214 26.1292C210.585 25.9438 210.932 25.7584 211.326 25.5962C211.697 25.434 212.068 25.2949 212.415 25.1791C212.763 25.0632 213.064 24.9937 213.342 24.9937C213.528 24.9937 213.62 25.0864 213.62 25.2718C213.62 25.3876 213.551 25.6425 213.389 26.0597C213.226 26.4768 213.041 26.9171 212.832 27.427C212.624 27.9368 212.415 28.4235 212.184 28.9101C211.952 29.3968 211.79 29.7444 211.697 29.9993C211.21 31.1117 210.955 31.7142 210.955 31.8301C210.955 32.0155 211.025 32.1082 211.141 32.1082C211.257 32.1082 211.465 31.9923 211.743 31.7837C212.021 31.5752 212.346 31.2739 212.693 30.9495C213.041 30.6018 213.412 30.2311 213.806 29.8139C214.2 29.3968 214.547 28.9796 214.918 28.6089C215.266 28.2149 215.59 27.8673 215.868 27.5428C216.146 27.2184 216.332 26.9867 216.471 26.8244L217.12 26.0829C217.236 25.967 217.328 25.8743 217.444 25.7816C217.56 25.6889 217.653 25.6194 217.769 25.5498C218.278 25.2022 218.765 25.04 219.182 25.04C219.275 24.9241 219.344 24.9937 219.344 25.1095Z" fill="#D3AF4A"/>
<path d="M230.769 25.1095C230.769 25.1327 230.677 25.3413 230.491 25.7121C230.306 26.0829 230.097 26.5463 229.865 27.1025L228.452 30.3933C228.382 30.5555 228.313 30.7177 228.22 30.9263C228.127 31.1348 228.035 31.3202 227.965 31.5288C227.896 31.7374 227.826 31.9228 227.757 32.085C227.687 32.2704 227.664 32.4094 227.664 32.5021C227.664 32.6875 227.757 32.7802 227.965 32.7802C228.081 32.7802 228.266 32.7107 228.568 32.5485C228.869 32.3863 229.309 32.1082 229.865 31.7142L230.051 32.1545C229.077 32.9424 228.29 33.5218 227.641 33.8694C226.992 34.2402 226.482 34.4256 226.088 34.4256C225.764 34.4256 225.601 34.2634 225.601 33.9621C225.601 33.7999 225.625 33.6145 225.671 33.4059C225.717 33.1974 225.787 32.9888 225.879 32.757C225.972 32.5253 226.065 32.2936 226.158 32.0618C226.25 31.8301 226.343 31.5983 226.436 31.3898C226.714 30.7641 226.945 30.2542 227.131 29.8371C227.316 29.42 227.478 29.0723 227.594 28.8174C227.71 28.5393 227.826 28.3308 227.896 28.1685C227.965 28.0063 228.035 27.8441 228.104 27.7282H227.896L227.27 28.4003C226.83 28.8869 226.343 29.3968 225.833 29.953C225.323 30.5091 224.79 31.0422 224.28 31.552C223.771 32.085 223.238 32.5485 222.751 33.012C222.241 33.4523 221.778 33.8231 221.384 34.1243C221.268 34.217 221.129 34.2865 220.966 34.3329C220.804 34.3792 220.642 34.4256 220.503 34.4256C220.341 34.4256 220.202 34.3792 220.132 34.2865C220.04 34.1939 220.016 34.078 220.016 33.9389C220.016 33.8231 220.04 33.6608 220.086 33.4523C220.132 33.2437 220.225 32.9888 220.341 32.7107C220.619 32.0618 220.897 31.3898 221.221 30.6945C221.523 29.9993 221.801 29.3736 222.056 28.7942C222.311 28.2149 222.519 27.7051 222.681 27.2879C222.844 26.8708 222.913 26.5695 222.913 26.4536C222.913 26.3378 222.844 26.2683 222.728 26.2683C222.519 26.2683 222.172 26.3841 221.639 26.639L220.874 27.033L220.735 26.639C220.99 26.4768 221.291 26.3146 221.639 26.1292C222.009 25.9438 222.357 25.7584 222.751 25.5962C223.122 25.434 223.492 25.2949 223.84 25.1791C224.188 25.0632 224.489 24.9937 224.767 24.9937C224.952 24.9937 225.045 25.0864 225.045 25.2718C225.045 25.3876 224.976 25.6425 224.813 26.0597C224.651 26.4768 224.466 26.9171 224.257 27.427C224.049 27.9368 223.84 28.4235 223.608 28.9101C223.377 29.3968 223.214 29.7444 223.122 29.9993C222.635 31.1117 222.38 31.7142 222.38 31.8301C222.38 32.0155 222.45 32.1082 222.566 32.1082C222.681 32.1082 222.89 31.9923 223.168 31.7837C223.446 31.5752 223.771 31.2739 224.118 30.9495C224.466 30.6018 224.837 30.2311 225.231 29.8139C225.625 29.3968 225.972 28.9796 226.343 28.6089C226.691 28.2149 227.015 27.8673 227.293 27.5428C227.571 27.2184 227.757 26.9867 227.896 26.8244L228.544 26.0829C228.66 25.967 228.753 25.8743 228.869 25.7816C228.985 25.6889 229.077 25.6194 229.193 25.5498C229.703 25.2022 230.19 25.04 230.607 25.04C230.7 24.9241 230.769 24.9937 230.769 25.1095Z" fill="#D3AF4A"/>
<path d="M60.5566 54.9293C60.0908 54.9293 59.6563 54.8458 59.2531 54.679C58.8568 54.5121 58.5092 54.2688 58.2102 53.949C57.9182 53.6292 57.6853 53.2364 57.5115 52.7706C57.3447 52.2978 57.2612 51.759 57.2612 51.1542C57.2612 50.5493 57.3516 50.014 57.5324 49.5482C57.7201 49.0754 57.9669 48.6792 58.2728 48.3594C58.5787 48.0396 58.9333 47.7997 59.3365 47.6398C59.7397 47.4729 60.1603 47.3895 60.5983 47.3895C60.8695 47.3895 61.1163 47.4069 61.3387 47.4417C61.5612 47.4764 61.7559 47.5216 61.9227 47.5772C62.0896 47.6259 62.2321 47.678 62.3503 47.7337C62.4685 47.7823 62.5589 47.8275 62.6214 47.8692L62.392 48.4845C62.2182 48.3802 61.9957 48.2794 61.7246 48.1821C61.4604 48.0778 61.1302 48.0256 60.7339 48.0256C60.282 48.0256 59.8857 48.1021 59.5451 48.2551C59.2113 48.408 58.9298 48.6235 58.7004 48.9016C58.4709 49.1797 58.2971 49.51 58.1789 49.8923C58.0677 50.2747 58.0121 50.6988 58.0121 51.1646C58.0121 51.6443 58.0677 52.0788 58.1789 52.4681C58.2971 52.8505 58.4675 53.1773 58.6899 53.4484C58.9124 53.7196 59.1835 53.9281 59.5033 54.0741C59.8301 54.2201 60.202 54.2931 60.6192 54.2931C61.078 54.2931 61.4604 54.2514 61.7663 54.168C62.0792 54.0776 62.3155 53.9872 62.4754 53.8968L62.6736 54.5017C62.6249 54.5364 62.5415 54.5782 62.4233 54.6268C62.3051 54.6685 62.1556 54.7137 61.9749 54.7624C61.7941 54.8111 61.5855 54.8493 61.3492 54.8771C61.1128 54.9119 60.8486 54.9293 60.5566 54.9293Z" fill="#D3AF4A"/>
<path d="M67.6414 50.2469C67.4328 50.4972 67.1895 50.8135 66.9114 51.1959C66.6403 51.5783 66.3622 51.9815 66.0772 52.4056C65.7991 52.8297 65.5314 53.2503 65.2742 53.6674C65.0169 54.0845 64.7945 54.453 64.6067 54.7728H63.9706V49.3813H64.638V53.6987C64.8049 53.3998 65.01 53.0556 65.2533 52.6663C65.5036 52.27 65.7678 51.8737 66.0459 51.4774C66.324 51.0742 66.6021 50.6884 66.8801 50.3199C67.1652 49.9514 67.4294 49.6386 67.6727 49.3813H68.3088V54.7728H67.6414V50.2469Z" fill="#D3AF4A"/>
<path d="M71.8012 49.9549V50.1739C71.8012 50.3825 71.7977 50.6119 71.7908 50.8622C71.7838 51.1055 71.7699 51.3558 71.7491 51.613C71.7282 51.8703 71.6935 52.1275 71.6448 52.3847C71.6031 52.635 71.5475 52.8714 71.4779 53.0939C71.4015 53.3233 71.3041 53.5423 71.1859 53.7508C71.0747 53.9525 70.9391 54.1332 70.7792 54.2931C70.6263 54.4461 70.4455 54.5747 70.237 54.679C70.0353 54.7763 69.8059 54.8389 69.5487 54.8667L69.4548 54.3035C69.8024 54.2271 70.0805 54.0846 70.2891 53.876C70.5046 53.6674 70.6819 53.3719 70.8209 52.9896C70.96 52.6072 71.0469 52.1692 71.0817 51.6756C71.1234 51.175 71.1442 50.6293 71.1442 50.0383V49.3813H74.4605V54.7728H73.7826V49.9549H71.8012Z" fill="#D3AF4A"/>
<path d="M76.3592 49.3813H77.0371V51.54C77.1622 51.5053 77.3465 51.4705 77.5898 51.4357C77.8401 51.394 78.0973 51.3732 78.3615 51.3732C78.6535 51.3732 78.9281 51.4044 79.1853 51.467C79.4426 51.5296 79.6685 51.6304 79.8632 51.7694C80.0579 51.9085 80.2108 52.0892 80.322 52.3117C80.4402 52.5342 80.4993 52.8053 80.4993 53.1251C80.4993 53.4449 80.4402 53.7161 80.322 53.9386C80.2108 54.161 80.0544 54.3453 79.8528 54.4913C79.6581 54.6303 79.4217 54.7311 79.1436 54.7937C78.8725 54.8563 78.5805 54.8875 78.2676 54.8875C78.0799 54.8875 77.8887 54.8806 77.6941 54.8667C77.5064 54.8528 77.3291 54.8354 77.1622 54.8145C76.9954 54.7937 76.8424 54.7693 76.7034 54.7415C76.5643 54.7137 76.4496 54.6824 76.3592 54.6477V49.3813ZM78.2676 54.2827C78.7334 54.2827 79.1054 54.1958 79.3835 54.022C79.6616 53.8412 79.8006 53.5423 79.8006 53.1251C79.8006 52.9305 79.7624 52.7601 79.6859 52.6141C79.6094 52.4681 79.5052 52.35 79.3731 52.2596C79.2479 52.1622 79.095 52.0927 78.9142 52.051C78.7404 52.0023 78.5492 51.978 78.3406 51.978C78.1112 51.978 77.8818 51.9884 77.6524 52.0093C77.4229 52.0302 77.2179 52.0719 77.0371 52.1344V54.1784C77.1275 54.1993 77.2874 54.2236 77.5168 54.2514C77.7462 54.2723 77.9965 54.2827 78.2676 54.2827Z" fill="#D3AF4A"/>
<path d="M86.086 54.7728H85.4082V52.2596H82.4778V54.7728H81.7999V49.3813H82.4778V51.686H85.4082V49.3813H86.086V54.7728Z" fill="#D3AF4A"/>
<path d="M87.9841 49.3813H88.6619V51.54C88.7871 51.5053 88.9713 51.4705 89.2146 51.4357C89.458 51.394 89.7013 51.3732 89.9446 51.3732C90.2158 51.3732 90.4765 51.4044 90.7268 51.467C90.984 51.5296 91.2065 51.6304 91.3942 51.7694C91.5888 51.9085 91.7418 52.0892 91.853 52.3117C91.9712 52.5342 92.0303 52.8053 92.0303 53.1251C92.0303 53.4449 91.9712 53.7161 91.853 53.9386C91.7418 54.161 91.5888 54.3453 91.3942 54.4913C91.1995 54.6303 90.9666 54.7311 90.6955 54.7937C90.4313 54.8563 90.1497 54.8875 89.8508 54.8875C89.67 54.8875 89.4858 54.8806 89.2981 54.8667C89.1173 54.8528 88.9435 54.8354 88.7766 54.8145C88.6167 54.7937 88.4673 54.7693 88.3282 54.7415C88.1892 54.7137 88.0745 54.6824 87.9841 54.6477V49.3813ZM89.8508 54.2827C90.2888 54.2827 90.6433 54.1923 90.9145 54.0116C91.1926 53.8308 91.3316 53.5353 91.3316 53.1251C91.3316 52.9305 91.2934 52.7601 91.2169 52.6141C91.1404 52.4681 91.0361 52.35 90.904 52.2596C90.7789 52.1622 90.6294 52.0927 90.4556 52.051C90.2888 52.0023 90.1115 51.978 89.9238 51.978C89.7082 51.978 89.4893 51.9884 89.2668 52.0093C89.0443 52.0302 88.8427 52.0719 88.6619 52.1344V54.1784C88.7523 54.1993 88.9087 54.2236 89.1312 54.2514C89.3537 54.2723 89.5935 54.2827 89.8508 54.2827ZM93.8448 54.7728H93.167V49.3813H93.8448V54.7728Z" fill="#D3AF4A"/>
<path d="M99.4175 50.2469C99.209 50.4972 98.9656 50.8135 98.6875 51.1959C98.4164 51.5783 98.1383 51.9815 97.8533 52.4056C97.5752 52.8297 97.3075 53.2503 97.0503 53.6674C96.7931 54.0845 96.5706 54.453 96.3829 54.7728H95.7467V49.3813H96.4142V53.6987C96.581 53.3998 96.7861 53.0556 97.0294 52.6663C97.2797 52.27 97.5439 51.8737 97.822 51.4774C98.1001 51.0742 98.3782 50.6884 98.6563 50.3199C98.9413 49.9514 99.2055 49.6386 99.4488 49.3813H100.085V54.7728H99.4175V50.2469ZM97.9158 48.4636C97.5265 48.4636 97.2067 48.3559 96.9564 48.1404C96.7062 47.9248 96.5462 47.6189 96.4767 47.2227L97.0294 47.0767C97.0711 47.313 97.1615 47.5077 97.3006 47.6607C97.4466 47.8066 97.6517 47.8796 97.9158 47.8796C98.18 47.8796 98.3816 47.8066 98.5207 47.6607C98.6667 47.5077 98.7605 47.313 98.8023 47.0767L99.355 47.2227C99.2854 47.6189 99.1255 47.9248 98.8753 48.1404C98.625 48.3559 98.3052 48.4636 97.9158 48.4636Z" fill="#D3AF4A"/>
<path d="M106.148 52.3326C105.995 52.5342 105.842 52.7462 105.689 52.9687C105.537 53.1912 105.387 53.4102 105.241 53.6257C105.102 53.8412 104.973 54.0498 104.855 54.2514C104.737 54.4461 104.636 54.6199 104.553 54.7728H103.854C104.139 54.2375 104.438 53.7404 104.751 53.2816C105.064 52.8158 105.384 52.3604 105.71 51.9154L103.958 49.3813H104.751L106.148 51.4462L107.567 49.3813H108.307L106.586 51.8737C106.732 52.0684 106.889 52.2804 107.056 52.5099C107.222 52.7393 107.389 52.9791 107.556 53.2294C107.723 53.4728 107.883 53.7265 108.036 53.9907C108.196 54.2549 108.342 54.5156 108.474 54.7728H107.744C107.66 54.6199 107.56 54.4461 107.441 54.2514C107.323 54.0498 107.191 53.8412 107.045 53.6257C106.906 53.4102 106.757 53.1912 106.597 52.9687C106.444 52.7462 106.294 52.5342 106.148 52.3326Z" fill="#D3AF4A"/>
<path d="M114.264 52.0823C114.264 52.5064 114.202 52.8922 114.077 53.2398C113.958 53.5875 113.788 53.8829 113.566 54.1263C113.35 54.3696 113.093 54.5608 112.794 54.6998C112.495 54.8319 112.165 54.898 111.803 54.898C111.442 54.898 111.111 54.8319 110.813 54.6998C110.514 54.5608 110.253 54.3696 110.03 54.1263C109.815 53.8829 109.645 53.5875 109.519 53.2398C109.401 52.8922 109.342 52.5064 109.342 52.0823C109.342 51.6582 109.401 51.2724 109.519 50.9247C109.645 50.5771 109.815 50.2817 110.03 50.0383C110.253 49.788 110.514 49.5969 110.813 49.4648C111.111 49.3257 111.442 49.2562 111.803 49.2562C112.165 49.2562 112.495 49.3257 112.794 49.4648C113.093 49.5969 113.35 49.788 113.566 50.0383C113.788 50.2817 113.958 50.5771 114.077 50.9247C114.202 51.2724 114.264 51.6582 114.264 52.0823ZM113.545 52.0823C113.545 51.4079 113.388 50.8726 113.076 50.4763C112.763 50.0731 112.339 49.8715 111.803 49.8715C111.268 49.8715 110.844 50.0731 110.531 50.4763C110.218 50.8726 110.062 51.4079 110.062 52.0823C110.062 52.7567 110.218 53.292 110.531 53.6883C110.844 54.0845 111.268 54.2827 111.803 54.2827C112.339 54.2827 112.763 54.0845 113.076 53.6883C113.388 53.292 113.545 52.7567 113.545 52.0823Z" fill="#D3AF4A"/>
<path d="M119.99 54.1993H120.605V56.2641H119.948V54.7728H115.756V56.2641H115.099V54.1993H115.652C115.881 53.8377 116.062 53.4901 116.194 53.1564C116.333 52.8227 116.437 52.4821 116.507 52.1344C116.583 51.7868 116.632 51.4218 116.653 51.0395C116.681 50.6501 116.694 50.226 116.694 49.7672V49.3813H119.99V54.1993ZM117.331 49.9549C117.331 50.3303 117.317 50.6988 117.289 51.0603C117.268 51.4218 117.223 51.7799 117.153 52.1344C117.084 52.489 116.986 52.8401 116.861 53.1877C116.736 53.5284 116.573 53.8656 116.371 54.1993H119.312V49.9549H117.331Z" fill="#D3AF4A"/>
<path d="M122.891 54.3244C122.891 54.4843 122.839 54.6199 122.735 54.7311C122.637 54.8423 122.498 54.898 122.318 54.898C122.137 54.898 121.994 54.8423 121.89 54.7311C121.793 54.6199 121.744 54.4843 121.744 54.3244C121.744 54.1645 121.793 54.0289 121.89 53.9177C121.994 53.8065 122.137 53.7508 122.318 53.7508C122.498 53.7508 122.637 53.8065 122.735 53.9177C122.839 54.0289 122.891 54.1645 122.891 54.3244Z" fill="#D3AF4A"/>
<path d="M129.426 52.2387C129.572 51.912 129.722 51.5574 129.874 51.175C130.027 50.7857 130.177 50.3859 130.323 49.9758C130.469 49.5586 130.604 49.145 130.73 48.7348C130.862 48.3176 130.976 47.9214 131.074 47.5459H131.825C131.686 48.0256 131.543 48.481 131.397 48.9121C131.258 49.3361 131.112 49.7498 130.959 50.153C130.813 50.5493 130.66 50.9421 130.5 51.3315C130.34 51.7138 130.173 52.0997 130 52.489C129.888 52.7393 129.767 53.0035 129.635 53.2816C129.503 53.5597 129.339 53.8169 129.144 54.0533C128.95 54.2827 128.71 54.4739 128.425 54.6268C128.147 54.7728 127.803 54.8458 127.393 54.8458C127.212 54.8458 127.052 54.825 126.913 54.7833C126.781 54.7485 126.683 54.7137 126.621 54.679L126.756 54.095C126.805 54.1228 126.885 54.1575 126.996 54.1993C127.107 54.234 127.253 54.2514 127.434 54.2514C127.671 54.2514 127.876 54.2166 128.049 54.1471C128.23 54.0706 128.383 53.9733 128.508 53.8551C128.64 53.7369 128.755 53.5979 128.852 53.438C128.95 53.2781 129.037 53.1112 129.113 52.9374C128.793 52.4508 128.494 51.9606 128.216 51.467C127.945 50.9734 127.695 50.4937 127.465 50.0279C127.243 49.5621 127.038 49.1206 126.85 48.7035C126.669 48.2794 126.51 47.8936 126.371 47.5459H127.163C127.399 48.1855 127.705 48.9155 128.081 49.7359C128.463 50.5563 128.912 51.3905 129.426 52.2387Z" fill="#D3AF4A"/>
<path d="M134.598 49.2666C134.807 49.2666 135.039 49.2805 135.297 49.3083C135.561 49.3292 135.808 49.3883 136.037 49.4856C136.267 49.576 136.458 49.722 136.611 49.9236C136.771 50.1183 136.851 50.3859 136.851 50.7266C136.851 50.9908 136.774 51.2272 136.621 51.4357C136.468 51.6374 136.26 51.7868 135.995 51.8842C136.385 51.9884 136.666 52.1553 136.84 52.3847C137.014 52.6141 137.101 52.8957 137.101 53.2294C137.101 53.5909 137.028 53.8829 136.882 54.1054C136.736 54.3209 136.541 54.4878 136.298 54.606C136.061 54.7172 135.79 54.7902 135.484 54.825C135.185 54.8597 134.88 54.8771 134.567 54.8771C134.191 54.8771 133.861 54.8528 133.576 54.8041C133.298 54.7554 133.058 54.7033 132.856 54.6477V49.4961C133.03 49.4404 133.26 49.3883 133.545 49.3396C133.83 49.291 134.181 49.2666 134.598 49.2666ZM133.534 51.6443H134.765C135.182 51.6443 135.519 51.5748 135.776 51.4357C136.034 51.2967 136.162 51.0638 136.162 50.737C136.162 50.5285 136.117 50.3651 136.027 50.2469C135.936 50.1287 135.818 50.0418 135.672 49.9862C135.526 49.9236 135.359 49.8854 135.172 49.8715C134.984 49.8506 134.796 49.8402 134.608 49.8402C134.379 49.8402 134.16 49.8541 133.951 49.8819C133.743 49.9028 133.604 49.9236 133.534 49.9445V51.6443ZM133.534 52.2074V54.1888C133.569 54.2027 133.625 54.2166 133.701 54.2305C133.785 54.2375 133.875 54.2479 133.972 54.2618C134.077 54.2688 134.184 54.2757 134.296 54.2827C134.414 54.2896 134.525 54.2931 134.629 54.2931C134.866 54.2931 135.092 54.2792 135.307 54.2514C135.523 54.2236 135.71 54.1715 135.87 54.095C136.03 54.0116 136.159 53.9038 136.256 53.7717C136.353 53.6327 136.402 53.4519 136.402 53.2294C136.402 53.0348 136.36 52.8714 136.277 52.7393C136.2 52.6072 136.089 52.5029 135.943 52.4264C135.804 52.35 135.637 52.2943 135.443 52.2596C135.255 52.2248 135.05 52.2074 134.827 52.2074H133.534Z" fill="#D3AF4A"/>
<path d="M138.33 52.0719C138.33 51.5991 138.396 51.1889 138.528 50.8413C138.667 50.4867 138.845 50.1913 139.06 49.9549C139.283 49.7185 139.533 49.5447 139.811 49.4335C140.096 49.3153 140.388 49.2562 140.687 49.2562C141.348 49.2562 141.872 49.4717 142.262 49.9028C142.658 50.3338 142.856 50.9977 142.856 51.8946C142.856 51.9502 142.853 52.0058 142.846 52.0614C142.846 52.1171 142.842 52.1692 142.835 52.2179H139.05C139.071 52.8783 139.234 53.3858 139.54 53.7404C139.846 54.095 140.333 54.2723 141 54.2723C141.368 54.2723 141.66 54.2375 141.876 54.168C142.091 54.0985 142.248 54.0394 142.345 53.9907L142.47 54.5747C142.373 54.6303 142.189 54.6964 141.918 54.7728C141.653 54.8493 141.341 54.8875 140.979 54.8875C140.506 54.8875 140.103 54.818 139.769 54.679C139.436 54.5399 139.161 54.3453 138.946 54.095C138.73 53.8447 138.574 53.5492 138.476 53.2086C138.379 52.861 138.33 52.4821 138.33 52.0719ZM142.158 51.6443C142.144 51.0812 142.012 50.6432 141.761 50.3303C141.511 50.0175 141.156 49.861 140.698 49.861C140.454 49.861 140.235 49.9097 140.041 50.007C139.853 50.1044 139.686 50.2365 139.54 50.4033C139.401 50.5632 139.29 50.7509 139.206 50.9665C139.13 51.182 139.085 51.4079 139.071 51.6443H142.158Z" fill="#D3AF4A"/>
<path d="M145.149 53.803C145.211 53.8516 145.288 53.9038 145.378 53.9594C145.476 54.015 145.587 54.0672 145.712 54.1158C145.837 54.1645 145.973 54.2062 146.119 54.241C146.265 54.2688 146.418 54.2827 146.578 54.2827C146.911 54.2827 147.189 54.2271 147.412 54.1158C147.641 53.9976 147.826 53.8412 147.965 53.6466C148.104 53.4449 148.204 53.212 148.267 52.9479C148.33 52.6767 148.361 52.3917 148.361 52.0927C148.361 51.3836 148.184 50.8413 147.829 50.4659C147.474 50.0835 147.005 49.8923 146.421 49.8923C146.087 49.8923 145.816 49.9097 145.608 49.9445C145.406 49.9723 145.253 50.0036 145.149 50.0383V53.803ZM145.149 56.7021H144.471V49.569C144.673 49.4995 144.93 49.4335 145.243 49.3709C145.556 49.3083 145.952 49.2771 146.432 49.2771C146.828 49.2771 147.186 49.3431 147.506 49.4752C147.832 49.6003 148.111 49.7846 148.34 50.0279C148.576 50.2712 148.757 50.5667 148.882 50.9143C149.014 51.2619 149.08 51.6547 149.08 52.0927C149.08 52.5029 149.025 52.8818 148.914 53.2294C148.809 53.5701 148.653 53.8656 148.444 54.1158C148.236 54.3592 147.978 54.5504 147.673 54.6894C147.374 54.8284 147.03 54.898 146.64 54.898C146.286 54.898 145.976 54.8493 145.712 54.752C145.455 54.6477 145.267 54.5504 145.149 54.46V56.7021Z" fill="#D3AF4A"/>
<path d="M150.332 52.0719C150.332 51.5991 150.398 51.1889 150.53 50.8413C150.669 50.4867 150.846 50.1913 151.062 49.9549C151.284 49.7185 151.535 49.5447 151.813 49.4335C152.098 49.3153 152.39 49.2562 152.689 49.2562C153.349 49.2562 153.874 49.4717 154.263 49.9028C154.66 50.3338 154.858 50.9977 154.858 51.8946C154.858 51.9502 154.854 52.0058 154.847 52.0614C154.847 52.1171 154.844 52.1692 154.837 52.2179H151.051C151.072 52.8783 151.236 53.3858 151.542 53.7404C151.848 54.095 152.334 54.2723 153.002 54.2723C153.37 54.2723 153.662 54.2375 153.878 54.168C154.093 54.0985 154.25 54.0394 154.347 53.9907L154.472 54.5747C154.375 54.6303 154.19 54.6964 153.919 54.7728C153.655 54.8493 153.342 54.8875 152.981 54.8875C152.508 54.8875 152.105 54.818 151.771 54.679C151.437 54.5399 151.163 54.3453 150.947 54.095C150.732 53.8447 150.575 53.5492 150.478 53.2086C150.381 52.861 150.332 52.4821 150.332 52.0719ZM154.159 51.6443C154.145 51.0812 154.013 50.6432 153.763 50.3303C153.513 50.0175 153.158 49.861 152.699 49.861C152.456 49.861 152.237 49.9097 152.042 50.007C151.854 50.1044 151.688 50.2365 151.542 50.4033C151.403 50.5632 151.291 50.7509 151.208 50.9665C151.131 51.182 151.086 51.4079 151.072 51.6443H154.159Z" fill="#D3AF4A"/>
<path d="M160.759 54.7728H160.081V52.2596H157.151V54.7728H156.473V49.3813H157.151V51.686H160.081V49.3813H160.759V54.7728Z" fill="#D3AF4A"/>
<path d="M166.943 54.7728H166.265V52.2596H163.335V54.7728H162.657V49.3813H163.335V51.686H166.265V49.3813H166.943V54.7728Z" fill="#D3AF4A"/>
<path d="M170.541 54.2827C170.805 54.2827 171.034 54.2757 171.229 54.2618C171.431 54.241 171.601 54.2166 171.74 54.1888V52.2909C171.664 52.2561 171.542 52.2213 171.375 52.1866C171.208 52.1449 170.979 52.124 170.687 52.124C170.52 52.124 170.346 52.1379 170.165 52.1657C169.985 52.1866 169.818 52.2387 169.665 52.3221C169.512 52.3986 169.387 52.5064 169.289 52.6454C169.192 52.7845 169.143 52.9687 169.143 53.1981C169.143 53.3998 169.175 53.5701 169.237 53.7091C169.307 53.8482 169.401 53.9594 169.519 54.0428C169.644 54.1263 169.79 54.1888 169.957 54.2305C170.131 54.2653 170.325 54.2827 170.541 54.2827ZM170.478 49.2562C170.833 49.2562 171.132 49.3083 171.375 49.4126C171.625 49.51 171.827 49.649 171.98 49.8298C172.133 50.0036 172.244 50.2121 172.314 50.4555C172.383 50.6988 172.418 50.963 172.418 51.248V54.6477C172.348 54.6685 172.248 54.6929 172.116 54.7207C171.983 54.7415 171.83 54.7659 171.657 54.7937C171.483 54.8215 171.288 54.8423 171.073 54.8563C170.864 54.8771 170.649 54.8875 170.426 54.8875C170.141 54.8875 169.877 54.8563 169.634 54.7937C169.397 54.7311 169.189 54.6338 169.008 54.5017C168.834 54.3626 168.695 54.1888 168.591 53.9803C168.493 53.7647 168.445 53.504 168.445 53.1981C168.445 52.9061 168.5 52.6559 168.612 52.4473C168.723 52.2387 168.879 52.0684 169.081 51.9363C169.282 51.7973 169.522 51.6964 169.8 51.6339C170.078 51.5713 170.381 51.54 170.708 51.54C170.805 51.54 170.906 51.547 171.01 51.5609C171.121 51.5678 171.226 51.5817 171.323 51.6026C171.427 51.6165 171.514 51.6339 171.584 51.6547C171.66 51.6686 171.712 51.6825 171.74 51.6964V51.3627C171.74 51.175 171.726 50.9943 171.698 50.8205C171.671 50.6397 171.608 50.4798 171.511 50.3408C171.42 50.1948 171.288 50.08 171.114 49.9966C170.948 49.9062 170.725 49.861 170.447 49.861C170.051 49.861 169.755 49.8889 169.561 49.9445C169.366 50.0001 169.223 50.0453 169.133 50.08L169.039 49.4856C169.157 49.43 169.338 49.3779 169.581 49.3292C169.832 49.2805 170.131 49.2562 170.478 49.2562Z" fill="#D3AF4A"/>
<path d="M175.649 52.5724C175.544 52.7323 175.43 52.9061 175.304 53.0939C175.186 53.2816 175.068 53.4728 174.95 53.6674C174.839 53.8621 174.731 54.0567 174.627 54.2514C174.522 54.4391 174.435 54.6129 174.366 54.7728H173.667C173.848 54.3626 174.067 53.949 174.324 53.5318C174.581 53.1147 174.821 52.7497 175.044 52.4369C174.905 52.3951 174.769 52.3361 174.637 52.2596C174.512 52.1831 174.397 52.0858 174.293 51.9676C174.196 51.8494 174.116 51.7103 174.053 51.5504C173.99 51.3836 173.959 51.1959 173.959 50.9873C173.959 50.6884 174.015 50.4311 174.126 50.2156C174.244 50.0001 174.401 49.8228 174.595 49.6838C174.797 49.5447 175.033 49.4404 175.304 49.3709C175.582 49.3014 175.878 49.2666 176.191 49.2666C176.33 49.2666 176.483 49.2736 176.65 49.2875C176.823 49.3014 176.994 49.3222 177.161 49.3501C177.334 49.3709 177.494 49.3952 177.64 49.4231C177.786 49.4509 177.908 49.4787 178.005 49.5065V54.7728H177.328V52.6037H176.358C176.205 52.6037 176.066 52.6037 175.941 52.6037C175.822 52.5968 175.725 52.5863 175.649 52.5724ZM177.328 49.9653C177.244 49.9445 177.109 49.9236 176.921 49.9028C176.733 49.8749 176.493 49.861 176.201 49.861C176.007 49.861 175.815 49.8819 175.628 49.9236C175.447 49.9584 175.284 50.0209 175.138 50.1113C174.992 50.2017 174.873 50.3199 174.783 50.4659C174.7 50.6049 174.658 50.7787 174.658 50.9873C174.658 51.1889 174.696 51.3593 174.773 51.4983C174.849 51.6304 174.957 51.7382 175.096 51.8216C175.235 51.8981 175.402 51.9537 175.596 51.9884C175.798 52.0232 176.02 52.0406 176.264 52.0406H177.328V49.9653Z" fill="#D3AF4A"/>
<path d="M183.634 54.2827C184.121 54.2827 184.503 54.2027 184.781 54.0428C185.059 53.876 185.199 53.6292 185.199 53.3024C185.199 53.066 185.146 52.8783 185.042 52.7393C184.938 52.6002 184.806 52.4925 184.646 52.416C184.493 52.3395 184.326 52.2909 184.145 52.27C183.971 52.2422 183.812 52.2283 183.666 52.2283H182.915V51.6547H183.613C183.739 51.6547 183.881 51.6443 184.041 51.6234C184.208 51.6026 184.361 51.5609 184.5 51.4983C184.639 51.4357 184.757 51.3488 184.854 51.2376C184.952 51.1194 185 50.9665 185 50.7787C185 50.598 184.959 50.4485 184.875 50.3303C184.799 50.2121 184.694 50.1183 184.562 50.0488C184.43 49.9792 184.277 49.9306 184.104 49.9028C183.937 49.8749 183.766 49.861 183.593 49.861C183.196 49.861 182.883 49.9028 182.654 49.9862C182.425 50.0627 182.268 50.1218 182.185 50.1635L182.028 49.5586C182.126 49.51 182.31 49.4509 182.581 49.3813C182.852 49.3049 183.189 49.2666 183.593 49.2666C184.281 49.2666 184.802 49.3918 185.157 49.642C185.511 49.8923 185.689 50.2643 185.689 50.7579C185.689 51.0638 185.598 51.3141 185.418 51.5087C185.237 51.6964 185.025 51.8285 184.781 51.905C185.122 52.0023 185.393 52.1657 185.595 52.3951C185.796 52.6246 185.897 52.927 185.897 53.3024C185.897 53.8377 185.706 54.2375 185.324 54.5017C184.941 54.7659 184.382 54.898 183.645 54.898C183.151 54.898 182.755 54.8563 182.456 54.7728C182.157 54.6894 181.966 54.6268 181.882 54.5851L182.06 53.9698C182.08 53.9837 182.126 54.0081 182.195 54.0428C182.272 54.0706 182.376 54.1054 182.508 54.1471C182.64 54.1819 182.8 54.2132 182.988 54.241C183.175 54.2688 183.391 54.2827 183.634 54.2827Z" fill="#D3AF4A"/>
<path d="M189.157 54.2827C189.421 54.2827 189.65 54.2757 189.845 54.2618C190.047 54.241 190.217 54.2166 190.356 54.1888V52.2909C190.28 52.2561 190.158 52.2213 189.991 52.1866C189.824 52.1449 189.595 52.124 189.303 52.124C189.136 52.124 188.962 52.1379 188.781 52.1657C188.601 52.1866 188.434 52.2387 188.281 52.3221C188.128 52.3986 188.003 52.5064 187.905 52.6454C187.808 52.7845 187.759 52.9687 187.759 53.1981C187.759 53.3998 187.791 53.5701 187.853 53.7091C187.923 53.8482 188.017 53.9594 188.135 54.0428C188.26 54.1263 188.406 54.1888 188.573 54.2305C188.747 54.2653 188.941 54.2827 189.157 54.2827ZM189.094 49.2562C189.449 49.2562 189.748 49.3083 189.991 49.4126C190.241 49.51 190.443 49.649 190.596 49.8298C190.749 50.0036 190.86 50.2121 190.93 50.4555C190.999 50.6988 191.034 50.963 191.034 51.248V54.6477C190.964 54.6685 190.864 54.6929 190.731 54.7207C190.599 54.7415 190.446 54.7659 190.273 54.7937C190.099 54.8215 189.904 54.8423 189.689 54.8563C189.48 54.8771 189.265 54.8875 189.042 54.8875C188.757 54.8875 188.493 54.8563 188.249 54.7937C188.013 54.7311 187.805 54.6338 187.624 54.5017C187.45 54.3626 187.311 54.1888 187.207 53.9803C187.109 53.7647 187.061 53.504 187.061 53.1981C187.061 52.9061 187.116 52.6559 187.228 52.4473C187.339 52.2387 187.495 52.0684 187.697 51.9363C187.898 51.7973 188.138 51.6964 188.416 51.6339C188.694 51.5713 188.997 51.54 189.324 51.54C189.421 51.54 189.522 51.547 189.626 51.5609C189.737 51.5678 189.842 51.5817 189.939 51.6026C190.043 51.6165 190.13 51.6339 190.2 51.6547C190.276 51.6686 190.328 51.6825 190.356 51.6964V51.3627C190.356 51.175 190.342 50.9943 190.314 50.8205C190.286 50.6397 190.224 50.4798 190.127 50.3408C190.036 50.1948 189.904 50.08 189.73 49.9966C189.563 49.9062 189.341 49.861 189.063 49.861C188.667 49.861 188.371 49.8889 188.176 49.9445C187.982 50.0001 187.839 50.0453 187.749 50.08L187.655 49.4856C187.773 49.43 187.954 49.3779 188.197 49.3292C188.448 49.2805 188.747 49.2562 189.094 49.2562Z" fill="#D3AF4A"/>
<path d="M199.427 54.7728H192.867V49.3813H193.545V54.1993H195.829V49.3813H196.507V54.1993H198.79V49.3813H199.468V54.1993H200.084V56.2641H199.427V54.7728Z" fill="#D3AF4A"/>
<path d="M205.075 50.2469C204.866 50.4972 204.623 50.8135 204.345 51.1959C204.073 51.5783 203.795 51.9815 203.51 52.4056C203.232 52.8297 202.965 53.2503 202.707 53.6674C202.45 54.0845 202.228 54.453 202.04 54.7728H201.404V49.3813H202.071V53.6987C202.238 53.3998 202.443 53.0556 202.686 52.6663C202.937 52.27 203.201 51.8737 203.479 51.4774C203.757 51.0742 204.035 50.6884 204.313 50.3199C204.598 49.9514 204.862 49.6386 205.106 49.3813H205.742V54.7728H205.075V50.2469Z" fill="#D3AF4A"/>
<path d="M211.111 49.3813V49.9549H209.339V54.7728H208.661V49.9549H206.898V49.3813H211.111Z" fill="#D3AF4A"/>
<path d="M213.965 54.2827C214.229 54.2827 214.458 54.2757 214.653 54.2618C214.854 54.241 215.025 54.2166 215.164 54.1888V52.2909C215.087 52.2561 214.966 52.2213 214.799 52.1866C214.632 52.1449 214.403 52.124 214.111 52.124C213.944 52.124 213.77 52.1379 213.589 52.1657C213.408 52.1866 213.242 52.2387 213.089 52.3221C212.936 52.3986 212.811 52.5064 212.713 52.6454C212.616 52.7845 212.567 52.9687 212.567 53.1981C212.567 53.3998 212.598 53.5701 212.661 53.7091C212.731 53.8482 212.824 53.9594 212.943 54.0428C213.068 54.1263 213.214 54.1888 213.381 54.2305C213.554 54.2653 213.749 54.2827 213.965 54.2827ZM213.902 49.2562C214.257 49.2562 214.556 49.3083 214.799 49.4126C215.049 49.51 215.251 49.649 215.404 49.8298C215.557 50.0036 215.668 50.2121 215.737 50.4555C215.807 50.6988 215.842 50.963 215.842 51.248V54.6477C215.772 54.6685 215.671 54.6929 215.539 54.7207C215.407 54.7415 215.254 54.7659 215.08 54.7937C214.907 54.8215 214.712 54.8423 214.496 54.8563C214.288 54.8771 214.072 54.8875 213.85 54.8875C213.565 54.8875 213.301 54.8563 213.057 54.7937C212.821 54.7311 212.612 54.6338 212.432 54.5017C212.258 54.3626 212.119 54.1888 212.014 53.9803C211.917 53.7647 211.868 53.504 211.868 53.1981C211.868 52.9061 211.924 52.6559 212.035 52.4473C212.147 52.2387 212.303 52.0684 212.505 51.9363C212.706 51.7973 212.946 51.6964 213.224 51.6339C213.502 51.5713 213.805 51.54 214.131 51.54C214.229 51.54 214.33 51.547 214.434 51.5609C214.545 51.5678 214.649 51.5817 214.747 51.6026C214.851 51.6165 214.938 51.6339 215.007 51.6547C215.084 51.6686 215.136 51.6825 215.164 51.6964V51.3627C215.164 51.175 215.15 50.9943 215.122 50.8205C215.094 50.6397 215.032 50.4798 214.934 50.3408C214.844 50.1948 214.712 50.08 214.538 49.9966C214.371 49.9062 214.149 49.861 213.871 49.861C213.474 49.861 213.179 49.8889 212.984 49.9445C212.79 50.0001 212.647 50.0453 212.557 50.08L212.463 49.4856C212.581 49.43 212.762 49.3779 213.005 49.3292C213.255 49.2805 213.554 49.2562 213.902 49.2562Z" fill="#D3AF4A"/>
<path d="M218.634 54.3244C218.634 54.4843 218.582 54.6199 218.478 54.7311C218.381 54.8423 218.242 54.898 218.061 54.898C217.88 54.898 217.737 54.8423 217.633 54.7311C217.536 54.6199 217.487 54.4843 217.487 54.3244C217.487 54.1645 217.536 54.0289 217.633 53.9177C217.737 53.8065 217.88 53.7508 218.061 53.7508C218.242 53.7508 218.381 53.8065 218.478 53.9177C218.582 54.0289 218.634 54.1645 218.634 54.3244Z" fill="#D3AF4A"/>
<path d="M50.5894 41.1924H216.981" stroke="#D3AF4A" stroke-width="2" stroke-miterlimit="10"/>
<path fill-rule="evenodd" clip-rule="evenodd" d="M0 42.1425H16.0134V41.0765H0V42.1425ZM0 40.4971L16.0134 40.5435V40.2422L0 40.2885V40.4971Z" fill="#D3AD4A"/>
<path fill-rule="evenodd" clip-rule="evenodd" d="M5.07507 20.3588C5.07507 20.3588 5.02872 19.5477 5.74712 18.7598C6.46552 17.9487 8.85247 17.9487 9.89531 17.6474C10.915 17.3462 10.9613 16.5814 10.9613 16.5814V13.4761C10.9613 13.4761 10.9382 14.2177 9.89531 14.5421C8.87564 14.8434 6.4887 14.8434 5.74712 15.6545C5.05189 16.4424 5.07507 17.2535 5.07507 17.2535V20.3588Z" fill="#AB8B2F"/>
<path fill-rule="evenodd" clip-rule="evenodd" d="M10.9383 16.6047C10.9383 16.6047 10.9846 15.7936 10.2894 15.0056C9.571 14.1945 7.18405 14.1945 6.16438 13.8933C5.14471 13.592 5.0752 12.8273 5.0752 12.8273V9.69873C5.0752 9.69873 5.12154 10.4403 6.16438 10.7647C7.18405 11.066 9.571 11.066 10.2894 11.8771C10.9846 12.665 10.9383 13.4761 10.9383 13.4761V16.6047Z" fill="#D3AF4A"/>
<path fill-rule="evenodd" clip-rule="evenodd" d="M5.07507 27.8906C5.07507 27.8906 5.02872 27.0795 5.74712 26.2915C6.46552 25.4804 8.85247 25.4804 9.89531 25.1792C10.915 24.8779 10.9613 24.1132 10.9613 24.1132V21.0078C10.9613 21.0078 10.9382 21.7494 9.89531 22.0738C8.87564 22.3751 6.4887 22.3751 5.74712 23.1862C5.05189 23.9741 5.07507 24.7852 5.07507 24.7852V27.8906Z" fill="#AB8B2F"/>
<path fill-rule="evenodd" clip-rule="evenodd" d="M10.9383 24.1132C10.9383 24.1132 10.9846 23.3021 10.2894 22.5142C9.571 21.7031 7.18405 21.7031 6.16438 21.4018C5.14471 21.1006 5.0752 20.3358 5.0752 20.3358V17.2305C5.0752 17.2305 5.12154 17.972 6.16438 18.2965C7.18405 18.5977 9.571 18.5977 10.2894 19.4088C10.9846 20.1968 10.9383 21.0079 10.9383 21.0079V24.1132Z" fill="#D3AF4A"/>
<path fill-rule="evenodd" clip-rule="evenodd" d="M5.07507 35.4223C5.07507 35.4223 5.02872 34.6112 5.74712 33.8233C6.46552 33.0122 8.85247 33.0122 9.89531 32.7109C10.915 32.4096 10.9613 31.6449 10.9613 31.6449V28.5396C10.9613 28.5396 10.9382 29.2811 9.89531 29.6056C8.87564 29.9068 6.4887 29.9068 5.74712 30.7179C5.05189 31.5059 5.07507 32.317 5.07507 32.317V35.4223Z" fill="#AB8B2F"/>
</svg>
