<svg width="18" height="18" viewBox="0 0 18 18" fill="none" xmlns="http://www.w3.org/2000/svg">
<path d="M9.79993 1.61333C9.86826 1.61833 9.93159 1.62333 9.98493 1.63083C13.7374 2.20833 15.4633 3.98583 15.9408 7.7675C15.9491 7.83167 15.9508 7.91 15.9516 7.9925C15.9566 8.28833 15.9666 8.90333 16.6266 8.91583H16.6466C16.8541 8.91583 17.0183 8.85333 17.1366 8.73C17.3416 8.51583 17.3283 8.19667 17.3158 7.94C17.3133 7.87667 17.3108 7.8175 17.3108 7.765C17.3591 3.89833 14.0108 0.390833 10.1474 0.260833C10.1308 0.260833 10.1158 0.260833 10.1008 0.263333C10.0856 0.265251 10.0702 0.266087 10.0549 0.265833C10.0158 0.265833 9.96909 0.2625 9.91826 0.259167C9.85826 0.255 9.78909 0.25 9.71826 0.25C9.10326 0.25 8.98659 0.6875 8.97159 0.948333C8.93743 1.55083 9.51993 1.59333 9.79993 1.61333ZM15.7599 12.655C15.6794 12.5938 15.5997 12.5316 15.5208 12.4683C15.1108 12.1383 14.6749 11.835 14.2541 11.5408L13.9916 11.3575C13.4516 10.9783 12.9666 10.7942 12.5083 10.7942C11.8899 10.7942 11.3516 11.1358 10.9066 11.8083C10.7099 12.1067 10.4708 12.2517 10.1766 12.2517C9.97228 12.2445 9.77178 12.1943 9.58826 12.1042C7.84659 11.3142 6.60159 10.1025 5.88993 8.50333C5.54576 7.73 5.65743 7.225 6.26243 6.81333C6.60659 6.58 7.24576 6.14583 7.20159 5.31333C7.14993 4.36917 5.06576 1.52667 4.18743 1.20417C3.81194 1.0672 3.40036 1.06602 3.02409 1.20083C2.01493 1.54 1.29159 2.13667 0.929093 2.92417C0.579093 3.68583 0.59576 4.58 0.974093 5.51C2.06993 8.19917 3.60993 10.5442 5.55243 12.4792C7.45326 14.3733 9.78993 15.9242 12.4966 17.09C12.7408 17.195 12.9966 17.2525 13.1841 17.2942C13.2474 17.3083 13.3024 17.3208 13.3424 17.3317C13.3644 17.3376 13.3871 17.3407 13.4099 17.3408H13.4316C14.7049 17.3408 16.2341 16.1775 16.7033 14.8517C17.1149 13.69 16.3633 13.1158 15.7599 12.655ZM10.3633 4.68583C10.1458 4.69083 9.69159 4.7025 9.53243 5.16417C9.45743 5.38083 9.46659 5.5675 9.55909 5.72167C9.69409 5.94667 9.95326 6.01667 10.1883 6.055C11.0424 6.19167 11.4816 6.66333 11.5691 7.54083C11.6099 7.94917 11.8858 8.235 12.2383 8.235C12.265 8.23496 12.2917 8.23329 12.3183 8.23C12.7433 8.18 12.9491 7.8675 12.9308 7.30167C12.9374 6.71167 12.6291 6.04167 12.1033 5.50833C11.5766 4.97333 10.9416 4.67167 10.3633 4.68583Z" fill="black" fill-opacity="0.5"/>
</svg>
